<svg xmlns="http://www.w3.org/2000/svg" width="155.12mm" height="120.85mm" viewBox="0 0 439.71 342.57"><defs><style>.cls-1{fill:#212121;}</style></defs><title>Asset 1</title><g id="Layer_2" data-name="Layer 2"><g id="Capa_1" data-name="Capa 1"><path class="cls-1" d="M71.09,171.28V171c0-13.23,9-24.45,21.77-24.45,9,0,14.74,3.85,20.43,9.88l15.57-16.74c-8.37-9.38-18.92-15.07-35.83-15.07-27.46,0-47.05,21.1-47.05,46.71v.34C46,197.23,65.73,218,92.69,218c17.92,0,28-6.86,36.67-16.4l-14.9-15.07c-6.2,5.86-12.06,9.54-20.59,9.54-13.9,0-22.78-11.05-22.78-24.78m36.34,169.28,27.77-89.8H110.08L95.45,305l-17-54.54H56.71L39.91,304.8l-14.3-54H0l27.44,89.8H50.06l17.46-54.71,17.13,54.71ZM209,47.05c0,13.22-8.71,24.44-23.27,24.44-14.07,0-23.61-11.55-23.61-24.78v-.33c0-13.23,8.71-24.45,23.27-24.45,14.07,0,23.61,11.55,23.61,24.78Zm25.11-.34v-.33C234.11,20.59,213.52,0,185.73,0,157.77,0,137,20.93,137,46.71v.34c0,25.78,20.59,46.37,48.38,46.37,28,0,48.72-20.93,48.72-46.71M209.39,171.62c0,13.23-8.71,24.44-23.27,24.44-14.07,0-23.61-11.55-23.61-24.78V171c0-13.23,8.71-24.45,23.27-24.45,14.07,0,23.61,11.56,23.61,24.78Zm25.11-.34V171c0-25.79-20.59-46.38-48.38-46.38-28,0-48.72,20.93-48.72,46.71v.34C137.4,197.4,158,218,185.78,218c28,0,48.72-20.92,48.72-46.71M209.66,296.19c0,13.23-8.7,24.44-23.27,24.44-14.06,0-23.6-11.55-23.6-24.78v-.33c0-13.23,8.7-24.45,23.27-24.45,14.06,0,23.6,11.56,23.6,24.78Zm25.12-.34v-.33c0-25.79-20.59-46.38-48.39-46.38-28,0-48.72,20.93-48.72,46.71v.34c0,25.78,20.59,46.38,48.39,46.38,28,0,48.72-20.93,48.72-46.72m39.71-45H249v89.74h25.45V307.41c0-21.44,10.38-31.65,27.29-31.65h1.34V249.14c-15.07-.67-23.44,7.37-28.63,19.76Zm31.33-159.4h25.45V33.32C331.27,12.72,320.05,0,300.79,0c-12.89,0-20.42,6.86-26.28,14.4V1.67H249.06V91.42h25.45V41.35c0-12,6.19-18.24,15.91-18.24s15.4,6.19,15.4,18.24Zm67.74,159.4-29.81,32.64V218.33H318.3V340.56h25.45v-27.3l9-9.54,22.94,36.84H405.2l-35.33-54.42L404,250.82ZM409.07,39.51H370.73c2-11.55,8.87-19.08,19.42-19.08,10.72,0,17.41,7.7,18.92,19.08m24.45,15.91c.16-2.35.33-4.69.33-6.7C433.85,23.27,420.12,0,390.15,0,364,0,345.78,21.09,345.78,46.71v.34c0,27.46,19.93,46.37,46.88,46.37,16.24,0,28.3-6.36,36.67-16.74L414.76,63.79C407.73,70.32,401.54,73,393,73c-11.39,0-19.43-6-21.94-17.58Zm6.19,273.4v-.17a12.6,12.6,0,0,0-12.85-12.75c-7.92,0-12.66,5.77-12.66,12.58v.17A12.6,12.6,0,0,0,427,341.41c7.93,0,12.67-5.78,12.67-12.59"/></g></g></svg>
