<svg xmlns="http://www.w3.org/2000/svg" viewBox="11.8 455.9 607.8 149.7">
<!-- SVG created with Arrow, by QuiverAI (https://quiver.ai) -->
  <style type="text/css">.cls-0 {fill:#020202;}</style>
  <path class="cls-0" d="m141 536.8c-17.4-1.4-40.6 8.4-60.1 15.7-15.8-6.1-36.9-15-52.5-15.8-11.7-0.1-21.2 6.6-15.3 22.5 6.6 18 27.9 40.7 59.3 43.5 35.9 3.3 64.2-12.7 76.7-38.2 6.6-12.8 6.6-26.5-8.1-27.7zm-118.6 12.5v-0.2c0-6.1 13.7-4.8 33.1 2.1l11.4 4.6-10.9 4.2c-18.1 4.9-35.8 6.9-33.6-10.7zm54.7 43.6c-13.2-1-27.5-5.7-40.1-17.3l-2.8-2.6h7.5c10.1 0 27.2-4.2 41.4-10 27.1-11.4 56.7-20.3 60-15.2 3.1 5.2-9.2 35.9-47.2 44.2-5.9 1-12.4 1.4-18.8 0.9z"/>
  <path class="cls-0" d="m81.6 455.9c-31 0-56.3 19.8-66.5 40.7-8.4 18.4-2.6 29 14.5 28 13.5-0.6 32-7.8 50.8-15l0.2-0.1 10.4 3.9c7.2 2.9 25.2 10.2 41.8 11.7 14.5 1.3 23.9-6.2 20.2-20.7-5.9-19.5-29.4-48.6-66.5-48.6l-4.9 0.1zm-51.9 58.7c-6.4 0-11.5 1-7.6-9.6 6.3-16.6 26.2-37 55.4-38.6s50.4 13.7 53.5 20.8h-4.4c-17 0-41.2 9.1-46 11-13.6 5.5-39.5 16.4-50.9 16.4zm112.4-11.3c2.3 6.2 2.8 11.3-5.7 11.3-10 0-24.2-4.5-38.7-10.5l4.5-1.6c15.4-4.3 35.8-9 39.9 0.8z"/>
  <path d="m230 505.7h-23.6v-13.3h63.9v13.3h-24.3v63.9h-16v-63.9z"/>
  <path d="m276.6 492.3h15.9v28.6h29.5v-28.6h15.9v77.3h-15.9v-34.5h-29.5v34.5h-15.9v-77.3z"/>
  <path d="m347.9 492.3h57v13.3h-41.2v16h37.6v13.4h-37.6v20.5h42.8v13.9h-58.6v-77.1z"/>
  <path d="m413.5 492.3h15.8v31.6l31.1-31.9h20.5l-32.9 31.2 34.4 46.3h-20.2l-24.5-33.8-8.3 8.2v25.6h-15.8l-0.1-77.2z"/>
  <path d="m488.6 492.3h59.8v13.3h-42.4v16.1h39.1v13.4h-39.2v20.5h44.7v13.9h-62v-77.2z"/>
  <path d="m556 492.3h38c14.1 0 24 7.6 24 20.7 0 11.5-5.2 16.4-11.4 19.6 5.1 2.2 9.4 5 9.4 16.5v20.4h-16.2v-19.6c0-7.8-3.1-10.6-10.4-10.6h-17.2v30.3h-16.2v-77.3zm35 33.9c7.2 0 10.8-2.9 10.8-9.9 0-7.6-4.4-10.4-10.6-10.4h-19v20.3h18.8z"/>
</svg>