<svg xmlns="http://www.w3.org/2000/svg" width="200" height="200" fill="none" viewBox="0 0 200 200">
<!-- SVG created with Arrow, by QuiverAI (https://quiver.ai) -->
  <path d="m183.7 73.91-30.88-8.3-2.17-0.09-2.86 1.45-4.81 19.92-9.02-16.99-11.05-11.72 0.73-7.99-1.55-6.74 1.86-3.03-0.57-6.91 1.22-0.46 6.16-9.29-2.9-9.85-11.91-6.37-16.46-2.25-11.47 1.6-2.43-4.29h-4.25l-2.91 3.81 0.93 1.77 4.48 1.98-6.69 1.49-13.67 9.85-7.82 9.29 1.62 7.7 6.2 3.41v2.53l-15.83 6.38-11.19 10.3-7.59 9.47-9.1 19.04-4.74 26.08 6.51 6.62-0.2 17.92 13.09 18.12 5.85 5.36-5.94 5.52-11.09 3.14-0.51 0.74 9.35 24.28h17.93v-6.07l-4.55-4.22v-3.17l21.87 1.13 16.3-5.39 9.11-13.64 15.77 2.73-1.5 15.74v12.35l0.93 0.54h38.82l0.57-0.99v-5.8l-15.23-8.27 14.86-17.19 4.21-8.35-1.67-13.9-8.5-8.49 2.47 0.73 0.7 1.93 8.23 0.35 12.54-7.04 1.21-5.74 6.34-2.75 0.29-4.89 11.62-41.44-0.71-1.65z" fill="#3F291E" stroke="#33211A" stroke-linecap="round" stroke-linejoin="round" stroke-width=".8"/>
  <path d="m117.8 60.19 14.7 8.75-7.81 11.73-5.61-2.5-1.28-17.98z" fill="#D66329" stroke="#3F291E" stroke-linejoin="round" stroke-width="1.2"/>
  <path d="m123.8 80.43 7.2-8.44 11.28 20.25-11.37 5.23-7.11-17.04z" fill="#EFE3B9" stroke="#3F291E" stroke-linecap="round" stroke-linejoin="round" stroke-width=".7"/>
  <path d="m126.2 82.37 13.15 5.97-8.43 7.71-4.72-13.68z" fill="#D9C7A2"/>
  <path d="m148.9 67.76-5.92 22.35 2.13 0.59 5.87-21.37 27.09 7.88 1.25-2.12-30.42-7.33z" fill="#33211A" stroke="#33211A" stroke-linecap="round" stroke-linejoin="round" stroke-width=".7"/>
  <path d="m182.3 74.76-50 20.21-8.37 43.07 47.34-21.03 11.43-41.72-0.4-0.53z" fill="#D0CDC1" stroke="#33211A" stroke-linecap="round" stroke-linejoin="round" stroke-width="1.8"/>
  <path d="m134.1 96.36 36.28 19.4" stroke="#3F291E" stroke-linecap="round" stroke-linejoin="round" stroke-width="1.2"/>
  <path d="m124 134.9-0.05 3.27-28.3-12.17v-3.68l31-12.03 0.67 2.42-3.32 22.19z" fill="#CBC6BB" stroke="#3F291E" stroke-linecap="round" stroke-linejoin="round" stroke-width="1.2"/>
  <path d="m106.1 124.4 19.83-8.38-0.06 2.93-18.28 7.09-1.49-1.64z" fill="#33211A" stroke="#33211A" stroke-linecap="round" stroke-linejoin="round" stroke-width=".7"/>
  <path d="m152.5 75.97 0.9 3.16-1.72 1.05" stroke="#E3E2D9" stroke-miterlimit="10" stroke-width="1.2"/>
  <path d="m154.2 81.66 2.88 0.95" stroke="#E3E2D9" stroke-miterlimit="10" stroke-width="1.2"/>
  <path d="m20.31 90.18-4.37 25.06 6.18 6.36 7.15-48-8.96 16.58z" fill="#B23B2E" stroke="#3F291E" stroke-linecap="round" stroke-linejoin="round" stroke-width=".7"/>
  <path d="m22.71 121.9v17.98l11.85 16.22 17.38-17.02-29.23-17.18z" fill="#2D8686" stroke="#3F291E" stroke-linecap="round" stroke-linejoin="round" stroke-width="1.2"/>
  <path d="m27.88 96.29 8.8-33.46 6.77 59.8-1.91 0.1-13.66-26.44z" fill="#E0D2A6" stroke="#3F291E" stroke-linecap="round" stroke-linejoin="round" stroke-width=".7"/>
  <path d="m37.88 62.04 10.33-10.31 15.57-6.41 4.2 16.61-0.3 0.63-29.8-0.52z" fill="#B23B2E" stroke="#3F291E" stroke-linecap="round" stroke-linejoin="round" stroke-width="1.2"/>
  <path d="m37.88 62.52 29.69 0.03-0.08 34.16-23.58 25.97-6.03-60.16z" fill="#EFE3B9" stroke="#3F291E" stroke-linecap="round" stroke-linejoin="round" stroke-width=".7"/>
  <path d="m38.68 62.8 28.54 18.34 0.06 15.27-22.96 26.22-0.8-0.42-4.84-59.41z" fill="#E0D2A6" stroke="#3F291E" stroke-linecap="round" stroke-linejoin="round" stroke-width=".7"/>
  <path d="m38.9 163.7-4.22 4.79-0.87 26.58 9.97-8.94 0.11-4.24-8.7-11.7 5.37-5.82-1.66-0.67z" fill="#B23B2E" stroke="#3F291E" stroke-linecap="round" stroke-linejoin="round" stroke-width="1.2"/>
  <path d="m35.99 169.3 8.28 12.79 23.14 1.06-26.66-19.32-4.76 5.47z" fill="#E0D2A6" stroke="#3F291E" stroke-linecap="round" stroke-linejoin="round" stroke-width="1.2"/>
  <path d="m35.17 195-1.09 0.56 14.88-0.09v-3.38l-5.44-4.94-9.44 7.57 1.09 0.28z" fill="#D66329" stroke="#3F291E" stroke-linecap="round" stroke-linejoin="round" stroke-width="1.2"/>
  <path d="m43.16 164.3 22.92 6.23 1.33 12.14-24.25-18.37z" fill="#A53226" stroke="#3F291E" stroke-linecap="round" stroke-linejoin="round" stroke-width="1.2"/>
  <path d="m52.56 139.8 14.06 30.48 24.25-0.12 2.84-7.41-15.64-17.28-25.51-5.67z" fill="#D66329" stroke="#3F291E" stroke-linecap="round" stroke-linejoin="round" stroke-width=".7"/>
  <path d="m66.91 170.7 0.79 11.6 14.77-4.46 6.72-7.94-22.28 0.8z" fill="#A53226" stroke="#3F291E" stroke-linecap="round" stroke-linejoin="round" stroke-width=".7"/>
  <path d="m44.11 123.1 25.37 6.33 23.14-11.3-48.51 4.97z" fill="#E0D2A6" stroke="#3F291E" stroke-linecap="round" stroke-linejoin="round" stroke-width=".7"/>
  <path d="m67.77 96.8 25.13 5.09-0.28 15.95-47.74 4.79 22.89-25.83z" fill="#EEE6BA" stroke="#3F291E" stroke-linecap="round" stroke-linejoin="round" stroke-width=".7"/>
  <path d="m68.21 62.93 22.54 26.69v11.59l-10.96-2.44-11.67-17.58 0.09-18.26z" fill="#A53226" stroke="#3F291E" stroke-linecap="round" stroke-linejoin="round" stroke-width=".7"/>
  <path d="m64.72 46.92 9.67 10.08 16.96 14.61 12.44 4.05-3.74 25.42h-8.97l-22.96-30.5-3.4-23.66z" fill="#EEE6BA" stroke="#3F291E" stroke-linecap="round" stroke-linejoin="round" stroke-width=".7"/>
  <path d="m74.3 38.72-0.11 9.14 1.32 4.83-0.57 1.17 6.37 7.71 0.32-23.19-7.33 0.34z" fill="#E0D2A6" stroke="#3F291E" stroke-linecap="round" stroke-linejoin="round" stroke-width=".7"/>
  <path d="m75.16 52.01 5.57 1.26" stroke="#3F291E" stroke-linecap="round" stroke-linejoin="round" stroke-width="1.2"/>
  <path d="m81.65 36.23 5.12-0.45 3.64 1.81-5.99 6.4-1.22 0.05-1.55-7.81z" fill="#3F291E" stroke="#3F291E" stroke-linecap="round" stroke-linejoin="round" stroke-width="1.2"/>
  <path d="m83.16 43.87 2.83-0.65 9.07-3.54 12.97-0.28-6.6 8.56-4.4-2.94-5.9 0.35 3.82 4.71-1.84 14.74-2.36 5.99-8.44-8.68-0.09-17.05 0.94-1.21z" fill="#D66329" stroke="#3F291E" stroke-linecap="round" stroke-linejoin="round" stroke-width=".7"/>
  <path d="m105.5 32.12 16 0.19 1.1 8.59-9.47-0.48-2.22 5.12 3.44 7.92-4.28 2.61-4.97-1.04-0.38-3.56-9.81 11.63-1.85 1.69 1.85-1.69 3.83-5.94 5.44-5.02 1.09 2.77 5.33 0.82 2.48-2.58-2.08-7.75 2-4.79 9.05 0.29-0.73-8.64-15.82-0.14z" fill="#3F291E" stroke="#3F291E" stroke-linecap="round" stroke-linejoin="round" stroke-width=".7"/>
  <path d="m114.7 45.16 1.46 2.04 2.96-3.04 1.87 6.55-1.5 11.96-8.57-7.51 2.22-1.45-0.46-5.9 2.02-2.65z" fill="#DABE98" stroke="#3F291E" stroke-linecap="round" stroke-linejoin="round" stroke-width=".7"/>
  <path d="m100.2 62.93 10.56-2.61 7.07 3.5-3.83 8.66-11.22 1.03-3.56-2.79 0.98-7.79z" fill="#DABE98" stroke="#3F291E" stroke-linecap="round" stroke-linejoin="round" stroke-width="1.2"/>
  <path d="m104.4 65.12 4.66-0.03 1.94 2.08-0.74 5.17-7.16 0.52 1.3-7.74z" fill="#D66329" stroke="#3F291E" stroke-linecap="round" stroke-linejoin="round" stroke-width="1.2"/>
  <path d="m103.7 75.41 9.95-2.22 6.7-8.96-0.18 24.79-1.45-0.54-15.02-13.07z" fill="#EEE6BA" stroke="#3F291E" stroke-linecap="round" stroke-linejoin="round" stroke-width=".7"/>
  <path d="m119 88.88-11.52 8.17 10.2 8.98 3.41 4.79 1.84-1.79-3.93-20.15z" fill="#3F291E" stroke="#3F291E" stroke-linecap="round" stroke-linejoin="round" stroke-width=".7"/>
  <path d="m109.5 97.73-6.24 19.18 1.05 1.46 6.65 0.64 8.06-7.13-2.28-9.47-7.24-4.68z" fill="#EFE3B9" stroke="#3F291E" stroke-linecap="round" stroke-linejoin="round" stroke-width=".7"/>
  <path d="m106.6 105.8 11.78 6.41" stroke="#3F291E" stroke-linecap="round" stroke-linejoin="round" stroke-width=".7"/>
  <path d="m104.7 111.1 7.26 4.93" stroke="#3F291E" stroke-linecap="round" stroke-linejoin="round" stroke-width=".7"/>
  <path d="m91.08 89.71 12.03-13.76 4.13 21.97-14.46 3.59-1.7-0.43v-11.37z" fill="#D66329" stroke="#3F291E" stroke-linecap="round" stroke-linejoin="round" stroke-width=".7"/>
  <path d="m79.01 3.5 1.96-0.38 3.8 0.09 2.74 4.19 1.62 0.78-3.92 1.46-6.2-3.23v-0.75-0.01-2.15z" fill="#385F44" stroke="#33211A" stroke-linecap="round" stroke-linejoin="round" stroke-width="1.8"/>
  <path d="m56.69 31.11 7.49-9.61 12.2-9.38 22.54-6 17.18 2.64 10.61 5.15-3.77 13.2-3.21 0.29-16.02-0.38-36.4 13.85-9.1-4.09-1.52-5.67z" fill="#4B8D65" stroke="#33211A" stroke-linecap="round" stroke-linejoin="round" stroke-width="1.8"/>
  <path d="m57.25 30.91 18.97-3.3 12.49-19.3 16.57 7.66 21.43-2.06-4.97 13 2.18 4.4-1.75 1-2.21-4.18-16.05-0.2-36.74 12.97-8.76-4.4-1.16-5.59z" fill="#51966C" stroke="#33211A" stroke-linecap="round" stroke-linejoin="round" stroke-width="1.2"/>
  <path d="m76.38 27.68 29.53-11.71-1.95 11.43" stroke="#33211A" stroke-linecap="round" stroke-linejoin="round" stroke-width="1.2"/>
  <path d="m57.62 31.02 9.69 8.69-0.49 0.99-8.74-4.07-0.46-5.61z" fill="#228179" stroke="#33211A" stroke-linecap="round" stroke-linejoin="round" stroke-width="1.2"/>
  <path d="m103.6 27.31 16.79-0.15 2.7 4.84-3.18-3.59-16.14-0.2-13.38 4.25 0.23-1.41 12.98-3.74z" fill="#228179" stroke="#228179" stroke-linecap="round" stroke-linejoin="round" stroke-width="1.2"/>
  <path d="m121.5 27.11 5.17-11.9 2.6 7.88-5.9 8.34-1.87-4.32z" fill="#4B8D65" stroke="#33211A" stroke-linecap="round" stroke-linejoin="round" stroke-width="1.8"/>
  <path d="m93.11 118.7-14.89 26.76 23.15-2.58 3.91-11.69-9.96-4.09-0.2-4.94 7.7-4.34-9.71 0.88z" fill="#B23B2E" stroke="#3F291E" stroke-linecap="round" stroke-linejoin="round" stroke-width=".7"/>
  <path d="m79.48 146.2 14.06 15.56 7.97-18.25-0.05-0.26-21.98 2.95z" fill="#E0D2A6" stroke="#3F291E" stroke-linecap="round" stroke-linejoin="round" stroke-width=".7"/>
  <path d="m101.9 143.3 18.24-3.91-10.07 27.49-15.86-4.04 7.69-19.54z" fill="#2D8686" stroke="#3F291E" stroke-linecap="round" stroke-linejoin="round" stroke-width="1.2"/>
  <path d="m100.4 157.1 19.82-17.45-10.73 26.94-9.09-2.19v-7.3z" fill="#2D8686" stroke="#3F291E" stroke-linecap="round" stroke-linejoin="round" stroke-width=".7"/>
  <path d="m110.2 167.9-1.16 15.28 6.46 0.47 8.45-17.29-13.75 1.54z" fill="#E0D2A6" stroke="#3F291E" stroke-linecap="round" stroke-linejoin="round" stroke-width=".7"/>
  <path d="m116.6 183.2 13.1-1.07 15.23-16.71-3.7-0.3-16.8 1.36-7.83 16.72z" fill="#EEE6BA" stroke="#3F291E" stroke-linecap="round" stroke-linejoin="round" stroke-width="1.2"/>
  <path d="m108.7 184.7 18.86 11.05 1.19-13.03-1.5-0.4-18.55 1.25v1.13z" fill="#A53226" stroke="#3F291E" stroke-linecap="round" stroke-linejoin="round" stroke-width="1.2"/>
  <path d="m127.8 195.4h18.1v-4.78l-15.84-7.8-2.5 0.28-0.48 11.73 0.72 0.57z" fill="#D66329" stroke="#3F291E" stroke-linecap="round" stroke-linejoin="round" stroke-width="1.2"/>
  <path d="m111.2 166.6 33.7-2.42 4.63-7.8-1.21-12.06-0.49-0.1-36.63 22.38z" fill="#D66329" stroke="#3F291E" stroke-linecap="round" stroke-linejoin="round" stroke-width="1.2"/>
  <path d="m140 134.1 9.1 9.24-0.48 0.84-36.33 21.85 11.53-28.1 0.6-0.31 14.06-4.43 1.52 0.91z" fill="#3F291E" stroke="#3F291E" stroke-linecap="round" stroke-linejoin="round" stroke-width=".7"/>
  <path d="m147.5 129.1-2.44 5.9 7.28 1.1 11.59-6.43 0.81-6.59-4.68-4.38-8.21 4.04-4.35 6.36z" fill="#E0D2A6" stroke="#3F291E" stroke-linecap="round" stroke-linejoin="round" stroke-width="1.2"/>
  <path d="m152.1 122.7 0.84 12.87" stroke="#3F291E" stroke-linecap="round" stroke-linejoin="round" stroke-width=".7"/>
  <path d="m158.7 120 1.5 12.21" stroke="#3F291E" stroke-linecap="round" stroke-linejoin="round" stroke-width=".7"/>
  <path d="m38.79 62.37 28.49 0.04 0.21 18.02-28.7-18.06z" fill="#D66329" stroke="#3F291E" stroke-linecap="round" stroke-linejoin="round" stroke-width=".7"/>
  <path d="m105.1 132.2 14.18 6.48-16.78 3.62 2.6-10.1z" fill="#D66329" stroke="#3F291E" stroke-linecap="round" stroke-linejoin="round" stroke-width=".7"/>
</svg>