<svg xmlns="http://www.w3.org/2000/svg" width="256" height="256" fill="none" viewBox="0 0 256 256">
<!-- SVG created with Arrow, by QuiverAI (https://quiver.ai) -->
  <path d="m4.63 4.16h247.6v248.2h-247.6v-248.2z" fill="#F5ECD1" stroke="#010B1B" stroke-linecap="round" stroke-linejoin="round" stroke-width="2.7"/>
  <path d="m252.2 61.38-25.23-30.34 25.23-25.84v56.18z" fill="#CE5F28" stroke="#010B1B" stroke-linecap="round" stroke-linejoin="round" stroke-width="2"/>
  <path d="m252 63.69-24.72-33.07-1.26-0.22 0.22 0.67-0.14-0.18-0.02 0.01-0.06-0.09-0.08 0.08-0.36 0.26 0.17-0.06-5.43 6.63-1.25 0.63-0.78 0.68-0.29 26.7 33.68 7.52 0.32-9.56z" fill="#EAB220" stroke="#010B1B" stroke-linecap="round" stroke-linejoin="round" stroke-width="2"/>
  <path d="m251.7 73.25-16.61 8.28 16.58 44.2 0.03-52.48z" fill="#1E3D5B" stroke="#010B1B" stroke-linecap="round" stroke-linejoin="round" stroke-width="2"/>
  <path d="m229.7 82.23-11.64 6.19-17.75 30.64 51.35 7.93-17.21-44.78-4.75 0.02z" fill="#CE5F28" stroke="#010B1B" stroke-linecap="round" stroke-linejoin="round" stroke-width="2"/>
  <path d="m251.6 128.5-16.36 44.66 16.78 8.05-0.42-52.71z" fill="#B8291A" stroke="#010B1B" stroke-linecap="round" stroke-linejoin="round" stroke-width="2"/>
  <path d="m226.5 132.2 24.41-4.47-15.8 45.33-17.39-5.35 8.78-35.51z" fill="#CE5F28" stroke="#010B1B" stroke-linecap="round" stroke-linejoin="round" stroke-width="2"/>
  <path d="m218.2 167.2 33.87 15.04-34.94 4.74 1.07-19.78z" fill="#F5ECD1" stroke="#010B1B" stroke-linecap="round" stroke-linejoin="round" stroke-width="2"/>
  <path d="m250.9 209.2-32.9 7.53 33.88 35.02-0.98-42.55z" fill="#CE5F28" stroke="#010B1B" stroke-linecap="round" stroke-linejoin="round" stroke-width="2"/>
  <path d="m218.2 217.7 32.27 32.85-41.56 1 9.29-33.85z" fill="#35848E" stroke="#010B1B" stroke-linecap="round" stroke-linejoin="round" stroke-width="2"/>
  <path d="m251.1 182.1-32.95 5.34-0.39 29.13 33.34-7.53v-26.94z" fill="#35848E" stroke="#010B1B" stroke-linecap="round" stroke-linejoin="round" stroke-width="2"/>
  <path d="m216.9 170.1-19.76 28.62 19.13 16.99 0.63-45.61z" fill="#B8291A" stroke="#010B1B" stroke-linecap="round" stroke-linejoin="round" stroke-width="2"/>
  <path d="m226.1 132.2-7.96 35.71-22.5-11.2 2.73-19.34 27.73-5.17z" fill="#35848E" stroke="#010B1B" stroke-linecap="round" stroke-linejoin="round" stroke-width="2"/>
  <path d="m198.2 137.5-3.11 19.22-28.89-12.9 32-6.32z" fill="#CE5F28" stroke="#010B1B" stroke-linecap="round" stroke-linejoin="round" stroke-width="2"/>
  <path d="m166.8 144.8 48.2 21.03-18.19 30.91-30.01-51.94z" fill="#E5D1AE" stroke="#010B1B" stroke-linecap="round" stroke-linejoin="round" stroke-width="2"/>
  <path d="m146.7 146.2 17.14-1.94 29.33 46.62-46.47-44.68z" fill="#EAB220" stroke="#010B1B" stroke-linecap="round" stroke-linejoin="round" stroke-width="2"/>
  <path d="m144.9 164 28.25 18.71-7.16 32.28-21.09-50.99z" fill="#CE5F28" stroke="#010B1B" stroke-linecap="round" stroke-linejoin="round" stroke-width="2"/>
  <path d="m144.5 166.5 14.21 33.12-23.02-2.34 8.81-30.78z" fill="#E5D1AE" stroke="#010B1B" stroke-linecap="round" stroke-linejoin="round" stroke-width="2"/>
  <path d="m138.7 197.9 19.29 1.94 8.06 18.26-33.24 8.11 5.89-28.31z" fill="#35848E" stroke="#010B1B" stroke-linecap="round" stroke-linejoin="round" stroke-width="2"/>
  <path d="m166.3 218.6 3.5 11.21-40.99 21.15-0.58 0.15 38.07-32.51z" fill="#B8291A" stroke="#010B1B" stroke-linecap="round" stroke-linejoin="round" stroke-width="2"/>
  <path d="m167 218.4 20.71-0.31-6.13 32.71-14.58-32.4z" fill="#F5ECD1" stroke="#010B1B" stroke-linecap="round" stroke-linejoin="round" stroke-width="2"/>
  <path d="m183.7 243 32.73-26.35-8.69 34.77-26.1-0.43 2.06-7.99z" fill="#EAB220" stroke="#010B1B" stroke-linecap="round" stroke-linejoin="round" stroke-width="2"/>
  <path d="m197.4 198.4 18.26 18.12-46.83-0.14 28.57-17.98z" fill="#E5D1AE" stroke="#010B1B" stroke-linecap="round" stroke-linejoin="round" stroke-width="2"/>
  <path d="m173.9 183.4 21.84 15.29-28.31 16.8 6.47-32.09z" fill="#EAB220" stroke="#010B1B" stroke-linecap="round" stroke-linejoin="round" stroke-width="2"/>
  <path d="m147.7 145.8 97.04-18.08h-116.2l19.19 18.08z" fill="#1E3D5B" stroke="#010B1B" stroke-linecap="round" stroke-linejoin="round" stroke-width="2"/>
  <path d="m146.9 109.2 95.63 17.86-114.4-0.2 18.79-17.66z" fill="#F5ECD1" stroke="#010B1B" stroke-linecap="round" stroke-linejoin="round" stroke-width="2"/>
  <path d="m128.3 128.7-0.17-88.52 18.72 68.69-18.55 19.83z" fill="#1E3D5B" stroke="#010B1B" stroke-linecap="round" stroke-linejoin="round" stroke-width="2"/>
  <path d="m147.1 108.6 45.59-45.82-29.02 48.12-16.57-2.3z" fill="#B8291A" stroke="#010B1B" stroke-linecap="round" stroke-linejoin="round" stroke-width="2"/>
  <path d="m184.7 80.73 15.4 14.9-33.97 15.99 18.57-30.89z" fill="#E5D1AE" stroke="#010B1B" stroke-linecap="round" stroke-linejoin="round" stroke-width="2"/>
  <path d="m218.2 87.18-21.05-28.98 19.13-19.12 1.92 48.1z" fill="#E5D1AE" stroke="#010B1B" stroke-linecap="round" stroke-linejoin="round" stroke-width="2"/>
  <path d="m214.8 5.11 0.9 31.73-27.66-17.55-2.17-14.21 28.93 0.03z" fill="#35848E" stroke="#010B1B" stroke-linecap="round" stroke-linejoin="round" stroke-width="2"/>
  <path d="m188.1 19.81 27.46 18.2-25.36 0.73-2.1-18.93z" fill="#1E3D5B" stroke="#010B1B" stroke-linecap="round" stroke-linejoin="round" stroke-width="2"/>
  <path d="m185 6.24 4.15 32.65-19.69 0.44 15.54-33.09z" fill="#F5ECD1" stroke="#010B1B" stroke-linecap="round" stroke-linejoin="round" stroke-width="2"/>
  <path d="m154.1 5.69 30.56 0.42-12.93 24.51-18.53-24.51 0.9-0.42z" fill="#B8291A" stroke="#010B1B" stroke-linecap="round" stroke-linejoin="round" stroke-width="2"/>
  <path d="m152.8 6.24-1.39 49.1 9.5-0.14 11.2-23.69-19.31-25.27z" fill="#F5ECD1" stroke="#010B1B" stroke-linecap="round" stroke-linejoin="round" stroke-width="2"/>
  <path d="m141.4 5.11 9.73 0.08-0.42 50.09-9.07-0.08-0.24-50.09z" fill="#1E3D5B" stroke="#010B1B" stroke-linecap="round" stroke-linejoin="round" stroke-width="2"/>
  <path d="m116.1 5.11 24.48 1 0.52 30-25-31z" fill="#E5D1AE" stroke="#010B1B" stroke-linecap="round" stroke-linejoin="round" stroke-width="2"/>
  <path d="m114.7 6.24 27.08 33.93 0.14 15.03-27.01-35.42-0.21-13.54z" fill="#1E3D5B" stroke="#010B1B" stroke-linecap="round" stroke-linejoin="round" stroke-width="2"/>
  <path d="m115.3 22.05 11.53 15.48-11.35 17.67-0.18-33.15z" fill="#E5D1AE" stroke="#010B1B" stroke-linecap="round" stroke-linejoin="round" stroke-width="2"/>
  <path d="m105.3 5.51h9.33l0.13 50.12h-9.46v-50.12z" fill="#1E3D5B" stroke="#010B1B" stroke-linecap="round" stroke-linejoin="round" stroke-width="2"/>
  <path d="m104.3 6.3-20.32 24.32 7.89 24.58h12.06l0.37-48.9z" fill="#F5ECD1" stroke="#010B1B" stroke-linecap="round" stroke-linejoin="round" stroke-width="2"/>
  <path d="m72.12 5.11 31.07 0.84-19.23 23.38-11.84-24.22z" fill="#CE5F28" stroke="#010B1B" stroke-linecap="round" stroke-linejoin="round" stroke-width="2"/>
  <path d="m70.38 6-3.11 32.89 19.44 0.14-16.33-33.03z" fill="#F5ECD1" stroke="#010B1B" stroke-linecap="round" stroke-linejoin="round" stroke-width="2"/>
  <path d="m36.76 37.94 49.25 1.67-27.82 18.12-21.43-19.79z" fill="#E5D1AE" stroke="#010B1B" stroke-linecap="round" stroke-linejoin="round" stroke-width="2"/>
  <path d="m69.48 6-40.09 23.76 8.42 7.64 28.48 0.39 3.19-31.79z" fill="#EAB220" stroke="#010B1B" stroke-linecap="round" stroke-linejoin="round" stroke-width="2"/>
  <path d="m5.53 5.4 23.43 24.21-23.87 19.08 0.44-43.29z" fill="#E5D1AE" stroke="#010B1B" stroke-linecap="round" stroke-linejoin="round" stroke-width="2"/>
  <path d="m5.09 48.27 24.3-18.36 7.86 8.3-21.13 31.4-11.03 3.64v-24.98z" fill="#B8291A" stroke="#010B1B" stroke-linecap="round" stroke-linejoin="round" stroke-width="2"/>
  <path d="m37.38 38.89 0.43 49.39 19.84-30.16-20.27-19.23z" fill="#B8291A" stroke="#010B1B" stroke-linecap="round" stroke-linejoin="round" stroke-width="2"/>
  <path d="m5.09 73.17 32.16-6.26v19.79l-18.09-5.54-14.07-7.99z" fill="#F5ECD1" stroke="#010B1B" stroke-linecap="round" stroke-linejoin="round" stroke-width="2"/>
  <path d="m5.01 73.84 14.65 7.76-14.65 43.42v-51.18z" fill="#35848E" stroke="#010B1B" stroke-linecap="round" stroke-linejoin="round" stroke-width="2"/>
  <path d="m20.98 82.73 17.13 5.84 16.7 30.09-49.62 8.33 15.79-44.26z" fill="#CE5F28" stroke="#010B1B" stroke-linecap="round" stroke-linejoin="round" stroke-width="2"/>
  <path d="m5.09 128.3 15.19 44.81-15.04 7.19-0.15-52z" fill="#1E3D5B" stroke="#010B1B" stroke-linecap="round" stroke-linejoin="round" stroke-width="2"/>
  <path d="m7.09 127.8 21.58 4.46 7.63 35.17-16.18 5.7-13.03-45.33z" fill="#EAB220" stroke="#010B1B" stroke-linecap="round" stroke-linejoin="round" stroke-width="2"/>
  <path d="m6.79 180 30.39-12.31v18.89l-23.09-2.81-7.3-3.77z" fill="#F5ECD1" stroke="#010B1B" stroke-linecap="round" stroke-linejoin="round" stroke-width="2"/>
  <path d="m5.01 208.2 31.85 7.89-31.85 35.37v-43.26z" fill="#E5D1AE" stroke="#010B1B" stroke-linecap="round" stroke-linejoin="round" stroke-width="2"/>
  <path d="m37.19 216.9 9.63 34.17-40.58-0.07 30.95-34.1z" fill="#EAB220" stroke="#010B1B" stroke-linecap="round" stroke-linejoin="round" stroke-width="2"/>
  <path d="m13.82 183.1 23.04 31.83 0.55 1.11-32.33-8.65v-25.33l8.74 1.04z" fill="#35848E" stroke="#010B1B" stroke-linecap="round" stroke-linejoin="round" stroke-width="2"/>
  <path d="m38.11 168.3 11.77 19.51 7.91 10.57-19.13 17.84-0.55-47.92z" fill="#E5D1AE" stroke="#010B1B" stroke-linecap="round" stroke-linejoin="round" stroke-width="2"/>
  <path d="m38.66 216.2 32.4 0.64 3.38 34.16-26.71-0.31-9.07-34.49z" fill="#35848E" stroke="#010B1B" stroke-linecap="round" stroke-linejoin="round" stroke-width="2"/>
  <path d="m68.84 217.5 20.57 0.23-14.58 32.57-5.99-32.8z" fill="#F5ECD1" stroke="#010B1B" stroke-linecap="round" stroke-linejoin="round" stroke-width="2"/>
  <path d="m58.78 198.4 28.13 18.12-47.13-0.8 19-17.32z" fill="#B8291A" stroke="#010B1B" stroke-linecap="round" stroke-linejoin="round" stroke-width="2"/>
  <path d="m30.62 132.6 27.09 4.52 2.02 19.86-22.5 10.3-6.61-34.68z" fill="#E5D1AE" stroke="#010B1B" stroke-linecap="round" stroke-linejoin="round" stroke-width="2"/>
  <path d="m57.71 137.6 29.94 7.18-27.92 12.25-2.02-19.43z" fill="#EAB220" stroke="#010B1B" stroke-linecap="round" stroke-linejoin="round" stroke-width="2"/>
  <path d="m43.61 165.1 45.8-19.5-16.32 27.46-29.48-7.96z" fill="#EAB220" stroke="#010B1B" stroke-linecap="round" stroke-linejoin="round" stroke-width="2"/>
  <path d="m38.66 166.3 20.18 30.16 15.11-23.61-35.29-6.55z" fill="#CE5F28" stroke="#010B1B" stroke-linecap="round" stroke-linejoin="round" stroke-width="2"/>
  <path d="m60.67 197.7 22.68-14.67 7.73 32.29-30.41-17.62z" fill="#E5D1AE" stroke="#010B1B" stroke-linecap="round" stroke-linejoin="round" stroke-width="2"/>
  <path d="m82.92 183 27.67-17.23-18.57 43.05-9.1-25.82z" fill="#E5D1AE" stroke="#010B1B" stroke-linecap="round" stroke-linejoin="round" stroke-width="2"/>
  <path d="m98.49 199.1 19.6-1.75 5.12 29.76-32.2-9.23 7.48-18.78z" fill="#35848E" stroke="#010B1B" stroke-linecap="round" stroke-linejoin="round" stroke-width="2"/>
  <path d="m86.11 229.8 40.66 21.65h-51.17l10.51-21.65z" fill="#1E3D5B" stroke="#010B1B" stroke-linecap="round" stroke-linejoin="round" stroke-width="2"/>
  <path d="m89.68 218.4 34.13 8.54 3.11 23.69-40.66-20.23 3.42-12z" fill="#CE5F28" stroke="#010B1B" stroke-linecap="round" stroke-linejoin="round" stroke-width="2"/>
  <path d="m126.8 127.8-0.13 119.4-16.71-101.4 16.84-17.94z" fill="#CE5F28" stroke="#010B1B" stroke-linecap="round" stroke-linejoin="round" stroke-width="2"/>
  <path d="m126.7 126.7-17.66-17.8 18.33-69.3-0.67 87.1z" fill="#F5ECD1" stroke="#010B1B" stroke-linecap="round" stroke-linejoin="round" stroke-width="2"/>
  <path d="m133.3 56.58 26.47 0.22-16.03 36.24-10.44-36.46z" fill="#E5D1AE" stroke="#010B1B" stroke-linecap="round" stroke-linejoin="round" stroke-width="2"/>
  <path d="m161.4 56.23 13.74 15.78-31.06 20.6 17.32-36.38z" fill="#E5D1AE" stroke="#010B1B" stroke-linecap="round" stroke-linejoin="round" stroke-width="2"/>
  <path d="m169.3 39.61 27.46 18.05-21.35 14.56-9.14-23.71 3.03-8.9z" fill="#E5D1AE" stroke="#010B1B" stroke-linecap="round" stroke-linejoin="round" stroke-width="2"/>
  <path d="m172.7 39.61 41.94-0.45-17.32 18.28-24.62-17.83z" fill="#B8291A" stroke="#010B1B" stroke-linecap="round" stroke-linejoin="round" stroke-width="2"/>
  <path d="m47.81 39-0.08-0.11" stroke="#010B1B" stroke-linecap="round" stroke-linejoin="round" stroke-width="2"/>
  <path d="m58.91 58.05 11.38 21.15 0.42 0.74-15.19 15.69-16.57-7.21 19.96-30.37z" fill="#35848E" stroke="#010B1B" stroke-linecap="round" stroke-linejoin="round" stroke-width="2"/>
  <path d="m60.18 100-4.84-4.38 15.79-15.62 18.64 30.61-29.59-10.61z" fill="#E5D1AE" stroke="#010B1B" stroke-linecap="round" stroke-linejoin="round" stroke-width="2"/>
  <path d="m40.19 90.03 49.88 20.37-34.65 7.77-15.23-28.14z" fill="#EAB220" stroke="#010B1B" stroke-linecap="round" stroke-linejoin="round" stroke-width="2"/>
  <path d="m11.23 127.3 115.1 0.44-17.22 18.79-97.9-19.23z" fill="#F5ECD1" stroke="#010B1B" stroke-linecap="round" stroke-linejoin="round" stroke-width="2"/>
  <path d="m109.3 108.6-103.4 17.98 104.4-16.56-1.04-1.42z" fill="#CE5F28" stroke="#010B1B" stroke-linecap="round" stroke-linejoin="round" stroke-width="2"/>
  <path d="m60.33 57.88 19.89 14.27 15.03-15.84-7.6-16.7-27.32 18.27z" fill="#CE5F28" stroke="#010B1B" stroke-linecap="round" stroke-linejoin="round" stroke-width="2"/>
  <path d="m96.39 56.61 25.42 0.15-9.5 36.28-15.92-36.43z" fill="#E5D1AE" stroke="#010B1B" stroke-linecap="round" stroke-linejoin="round" stroke-width="2"/>
  <path d="m95.47 56.58 16.21 35.32-31.06-19.68 14.85-15.64z" fill="#E5D1AE" stroke="#010B1B" stroke-linecap="round" stroke-linejoin="round" stroke-width="2"/>
  <path d="m64.78 63.21 45.44 44.82-17.32 2.59-28.12-47.41z" fill="#B8291A" stroke="#010B1B" stroke-linecap="round" stroke-linejoin="round" stroke-width="2"/>
  <path d="m65.99 63.69 46.25 32.4-3.31 11.79-42.94-44.19z" fill="#EAB220" stroke="#010B1B" stroke-linecap="round" stroke-linejoin="round" stroke-width="2"/>
  <path d="m147.4 147.2 44.42 43.71-46.39-27.24 1.97-16.47z" fill="#35848E" stroke="#010B1B" stroke-linecap="round" stroke-linejoin="round" stroke-width="2"/>
  <path d="m92.94 143.9 15.88 2.82-44.32 44.63 28.44-47.45z" fill="#B8291A" stroke="#010B1B" stroke-linecap="round" stroke-linejoin="round" stroke-width="2"/>
  <path d="m109.6 148.3 2.43 14.73-40.89 26.97 38.46-41.7z" fill="#35848E" stroke="#010B1B" stroke-linecap="round" stroke-linejoin="round" stroke-width="2"/>
  <path d="m111 168 6.71 29.09-19.52 2.11 12.81-31.2z" fill="#EAB220" stroke="#010B1B" stroke-linecap="round" stroke-linejoin="round" stroke-width="2"/>
</svg>