<svg xmlns="http://www.w3.org/2000/svg" width="200" height="200" fill="none" viewBox="0 0 200 200">
<!-- Mosaic illustration; palette matches HackSpain / Quiver Arrow-style assets (https://quiver.ai) -->
  <path d="m100 18 38 22-8 14-30-17-30 17-8-14 38-22z" fill="#f3e6c2" stroke="#000000" stroke-linecap="round" stroke-linejoin="round" stroke-width="1.8"/>
  <path d="m138 40 22 38-16 4-14-32 8-10z" fill="#d96b2a" stroke="#000000" stroke-linecap="round" stroke-linejoin="round" stroke-width="1.8"/>
  <path d="m62 40-22 38 16 4 14-32-8-10z" fill="#35858a" stroke="#000000" stroke-linecap="round" stroke-linejoin="round" stroke-width="1.8"/>
  <path d="m40 78 4 46h112l4-46-24 12h-72l-24-12z" fill="#d96b2a" stroke="#000000" stroke-linecap="round" stroke-linejoin="round" stroke-width="1.8"/>
  <path d="m44 124 8 28 36 18 36-18 8-28h-88z" fill="#35858a" stroke="#000000" stroke-linecap="round" stroke-linejoin="round" stroke-width="1.8"/>
  <path d="m52 152 48 24 48-24-12 8h-72l-12-8z" fill="#f3e6c2" stroke="#000000" stroke-linecap="round" stroke-linejoin="round" stroke-width="1.8"/>
  <path d="m76 176h48l-24 16-24-16z" fill="#c19231" stroke="#000000" stroke-linecap="round" stroke-linejoin="round" stroke-width="1.8"/>
  <path d="m100 52 18 32h-36l18-32z" fill="#f3e6c2" stroke="#000000" stroke-linecap="round" stroke-linejoin="round" stroke-width="1.8"/>
  <path d="m82 84 36 0-10 18h-16l-10-18z" fill="#35858a" stroke="#000000" stroke-linecap="round" stroke-linejoin="round" stroke-width="1.8"/>
  <path d="m28 118 12-8 6 14-10 10-8-16z" fill="#f3e6c2" stroke="#000000" stroke-linecap="round" stroke-linejoin="round" stroke-width="1.8"/>
  <path d="m172 118-12-8-6 14 10 10 8-16z" fill="#f3e6c2" stroke="#000000" stroke-linecap="round" stroke-linejoin="round" stroke-width="1.8"/>
  <path d="m18 138 14-6 8 20-14 10-8-24z" fill="#d96b2a" stroke="#000000" stroke-linecap="round" stroke-linejoin="round" stroke-width="1.8"/>
  <path d="m182 138-14-6-8 20 14 10 8-24z" fill="#d96b2a" stroke="#000000" stroke-linecap="round" stroke-linejoin="round" stroke-width="1.8"/>
  <path d="m46 168 20-10 10 14-18 12-12-16z" fill="#35858a" stroke="#000000" stroke-linecap="round" stroke-linejoin="round" stroke-width="1.8"/>
  <path d="m154 168-20-10-10 14 18 12 12-16z" fill="#35858a" stroke="#000000" stroke-linecap="round" stroke-linejoin="round" stroke-width="1.8"/>
</svg>
