<svg xmlns="http://www.w3.org/2000/svg" width="200" height="200" fill="none" viewBox="0 0 200 200">
<!-- SVG created with Arrow, by QuiverAI (https://quiver.ai) -->
  <path d="m49.22 2-3.46 71.79-4.18 16.83h7.68l0.1 107.1h6.55l-0.43-78.1 10.57 16.21 11.11-1.56 1.87-7.57 1.44 10.84-2.82 1.28 3.46 2.4-13.95 30.33 6.6 2.65-3.4 23.26 21.46-0.01 7.92-23.47 5.55 23.37h21.69v-24.06l5.94-5.64 2.95 3.08-1.76 0.43-3.99 2.64-1.14 12.19 3.18-0.51 1.91-3.46-0.34 4.7-3.89 5.98 2.17 0.85 11.34-5.07 3.11-6.46-1.54-13.89 7.33-33.66 5.17-10.69-6.89-11.63-1.5 1.49-7.54-22.48 4.43-0.1-6.89-20.21-16.62-5.27-1.43 1.43-8.85-3.77-0.87-13.08 6.88-9.46 6.97-0.44 4.55-3.01-1.87-4.21-7.54-5.97-3.02-9.29-9.37-5.81-11.1 0.58-7.8 6.16-8.15 0.59-3.28 3.55 1.58 4 8.62 7.14-0.69 5.41 2.29 5.29-5.84 8.63 5.01-2.58 0.33 17.26-15.12 4.61-6.63 38.84-8.87-7.5 0.06-2.82 2.04-6.86-3.3-2.5-1.78 0.49-3.08-0.77-0.26-1.33 9.02-0.43-3.79-17.1-5.01-70.59h-2.89z" fill="#401A05"/>
  <path d="m50.66 18.17-3.74 55.24 8.25-0.17-2.75-55.14-1.76 0.07z" fill="#E37B34" stroke="#401A05" stroke-miterlimit="10" stroke-width=".7"/>
  <path d="m52.22 18.66 0.37 54.54 2.58-0.02-2.95-54.52z" fill="#549396" stroke="#401A05" stroke-miterlimit="10" stroke-width=".7"/>
  <path d="m46.91 74.19-3.33 14.27 16.5-0.39-3.94-14.25-9.23 0.37z" fill="#F2E7CA" stroke="#401A05" stroke-miterlimit="10" stroke-width=".7"/>
  <path d="m51.73 73.82 0.24 14.82 1.04-0.04 6.23-0.71-3.46-14.07h-4.05z" fill="#1D385E" stroke="#401A05" stroke-miterlimit="10" stroke-width=".7"/>
  <path d="m50.48 90.6 0.04 2.23 3.06-0.27v-2.52l-3.1 0.56z" fill="#8E5D3B" stroke="#401A05" stroke-miterlimit="10" stroke-width=".7"/>
  <path d="m50.63 107.1 0.25 88.6h3.46l-0.56-89.21-3.15 0.61z" fill="#BC452B" stroke="#401A05" stroke-miterlimit="10" stroke-width=".7"/>
  <path d="m50.66 147.2 2.98-11.79 0.13 1.63 0.14 24.9-0.14 33.79-2.97 0.04-0.14-48.57z" fill="#BA653C" stroke="#401A05" stroke-miterlimit="10" stroke-width=".7"/>
  <path d="m44.18 95.09-1.06 4.57 1.34 3.56 1.3 5.91 2.85 1.1 7.44-1.45 0.71-5.68 1.07-8.01-1.8-1.99-2.17 1.17-0.97-1.17-4.92 0.14-3.79 1.85z" fill="#F2E7CA" stroke="#401A05" stroke-miterlimit="10" stroke-width="1.4"/>
  <path d="m44.61 99.42 8.56-2.21 0.74-2.12-2.06-1.27" stroke="#401A05" stroke-miterlimit="10" stroke-width=".7"/>
  <path d="m44.75 103 10.23-1.61 1.14 1.66-10.5 1.17-0.87-1.22z" fill="#DE9050" stroke="#401A05" stroke-miterlimit="10" stroke-width=".7"/>
  <path d="m46.06 107.4 9.29-0.65 0.21 1.41-8.15 0.8-1.35-1.56z" fill="#DE9050" stroke="#401A05" stroke-miterlimit="10" stroke-width=".7"/>
  <path d="m57.41 106.1-0.6 3.82v2.17l11.5 14.54 3.65-9.15-14.55-11.38z" fill="#F2E7CA" stroke="#401A05" stroke-miterlimit="10" stroke-width=".7"/>
  <path d="m70.97 126 1.75-8.26 3.77 4.77-0.9 10.2-8.38 1.24 3.76-7.95z" fill="#BC452B" stroke="#401A05" stroke-miterlimit="10" stroke-width=".7"/>
  <path d="m73.31 90.96-4.68 23.12 4.09 3.84 7.11-21.9 1.13-11.24-7.65 6.18z" fill="#BC452B" stroke="#401A05" stroke-miterlimit="10" stroke-width=".7"/>
  <path d="m79.83 99.73-3.11 17.88 1.89 5.32 3.51-8.82-1.01-14.1-1.28-0.28z" fill="#1D385E" stroke="#401A05" stroke-miterlimit="10" stroke-width=".7"/>
  <path d="m74.86 73.67 11.99-3.61-0.14 12.05-16.13 9.44 4.28-17.88z" fill="#E3B787" stroke="#401A05" stroke-miterlimit="10" stroke-width=".7"/>
  <path d="m86.58 81.31-4.97 17.51 0.75 12.29 11.05-10.02-6.83-19.78z" fill="#F2E7CA" stroke="#401A05" stroke-miterlimit="10" stroke-width=".7"/>
  <path d="m87.15 76.14 9.59 4.43-5.63-6.22-3.96 1.79z" fill="#F2E7CA" stroke="#401A05" stroke-miterlimit="10" stroke-width=".7"/>
  <path d="m93.43 101.2 22.08-17.2 0.91 10.91-7.18 21.66-15.27-15.19-0.54-0.18z" fill="#E3B787" stroke="#401A05" stroke-miterlimit="10" stroke-width=".7"/>
  <path d="m93.97 102-0.06 36.94 13.51-7.81 1.89-14.4-15.34-14.73z" fill="#BC452B" stroke="#401A05" stroke-miterlimit="10" stroke-width=".7"/>
  <path d="m115 96.73 9.3 11.85-5.88 17.41-9.19-9.15 5.77-20.11z" fill="#549396" stroke="#401A05" stroke-miterlimit="10" stroke-width=".7"/>
  <path d="m115.1 84.81 3.81 8.23 7.31 0.78 11.21-21.59-21.46 10.91-0.87 1.67z" fill="#549396" stroke="#401A05" stroke-miterlimit="10" stroke-width=".7"/>
  <path d="m126.1 93.67 8.83 18.44 8.74 5.7-6.3 7.25-10.61-28.8-0.66-2.59z" fill="#E37B34" stroke="#401A05" stroke-miterlimit="10" stroke-width=".7"/>
  <path d="m128.8 93.11 14.67 8.05-4.75-9.64-9.92 1.59z" fill="#549396" stroke="#401A05" stroke-miterlimit="10" stroke-width=".7"/>
  <path d="m137.7 72.79-16.81 20.18 23.31-3.21-6.5-16.97z" fill="#BC452B" stroke="#401A05" stroke-miterlimit="10" stroke-width=".7"/>
  <path d="m122.9 67.54-7.11 14.86 20.89-10.48-13.78-4.38z" fill="#F2E7CA" stroke="#401A05" stroke-miterlimit="10" stroke-width=".7"/>
  <path d="m116.8 92.71 4.17 1.25 5.74 4.78-2.01 8.62s-9.9-5.63-9.67-17.36c0.05-2.57 0.59-4.87 0.59-4.87-0.67 1.92-0.54 3.76 1.18 7.58z" fill="#1D385E" stroke="#401A05" stroke-miterlimit="10" stroke-width=".7"/>
  <path d="m140.6 114.7 7.32-0.48-3.07-10.48-7.78-4.05 3.53 15.01z" fill="#84502A" stroke="#401A05" stroke-miterlimit="10" stroke-width=".7"/>
  <path d="m137.3 125.9 13.33-12.73 5.1 10.14-5.73 1.59-12.7 1z" fill="#E3B787" stroke="#401A05" stroke-miterlimit="10" stroke-width=".7"/>
  <path d="m140.3 126.4 14.72-2.44-3.32 8.84-5.86-0.71-5.54-5.69z" fill="#1D385E" stroke="#401A05" stroke-miterlimit="10" stroke-width=".7"/>
  <path d="m136.7 126.2 9.18 5.12-9.63 11.79 0.45-16.91z" fill="#BC452B" stroke="#401A05" stroke-miterlimit="10" stroke-width=".7"/>
  <path d="m146.9 131.7-4 35.39-4.32-1.06-1.5-23.25 8.9-11.08h0.92z" fill="#E3B787" stroke="#401A05" stroke-miterlimit="10" stroke-width=".7"/>
  <path d="m136.2 167-4.87 8.44 2.33 2.03 2.95 2.09 8.21 1.63-1.61-13.43-7.01-0.76z" fill="#F0B180" stroke="#401A05" stroke-miterlimit="10" stroke-width=".7"/>
  <path d="m131 174.4-0.81 9.81 1.96-0.43 1.78-7.73-2.93-1.65z" fill="#F2E7CA" stroke="#401A05" stroke-miterlimit="10" stroke-width=".7"/>
  <path d="m136.7 179.3 3.09 8.77 4.28-6.07-7.37-2.7z" fill="#BC452B" stroke="#401A05" stroke-miterlimit="10" stroke-width=".7"/>
  <path d="m139.8 180.6-3.46 8.62 2.61-1.36 3.08-6.85-2.23-0.41z" fill="#E37B34" stroke="#401A05" stroke-miterlimit="10" stroke-width=".7"/>
  <path d="m134.1 179.3-4.2 12.42 3.32-1.44 4.56-8.84-1.23-1.57-2.45-0.57z" fill="#E3B787" stroke="#401A05" stroke-miterlimit="10" stroke-width=".7"/>
  <path d="m101.8 176.8 29.35-7.62-9.87-30.07 3.15-1.5-6.13-6.23-15.12 4.58-8.75 5 1.28 5.09 6.09 30.75z" fill="#1D385E" stroke="#401A05" stroke-miterlimit="10" stroke-width=".7"/>
  <path d="m101.6 176.4 12.95-17.95 16.13 10.51-28.45 7.94-0.63-0.5z" fill="#BC452B" stroke="#401A05" stroke-miterlimit="10" stroke-width=".7"/>
  <path d="m114.4 158 5.13-17.68 0.76-0.3 9.59 27.43-15.48-9.45z" fill="#1D385E" stroke="#401A05" stroke-miterlimit="10" stroke-width=".7"/>
  <path d="m96.45 147 17.71 11.34-10.45 16.75-7.26-28.09z" fill="#E37B34" stroke="#401A05" stroke-miterlimit="10" stroke-width=".7"/>
  <path d="m112.4 175.3 12.65-2.3 0.07 15.28-12.05-6.91-0.67-6.07z" fill="#84502A" stroke="#401A05" stroke-miterlimit="10" stroke-width=".7"/>
  <path d="m106.1 176.9 7 0.98 1.88 17.68h-8.45l-3.46-17.96 3.03-0.7z" fill="#E37B34" stroke="#401A05" stroke-miterlimit="10" stroke-width=".7"/>
  <path d="m92.11 146.1 0.3 16.27 2.61 9.5-2.95-4.43-3.15-8.4 3.19-12.94z" fill="#401A05" stroke="#401A05" stroke-miterlimit="10" stroke-width=".7"/>
  <path d="m74.66 174.4 9.99 2.95-5.13 18.73-7.31-0.2 2.45-21.48z" fill="#E3B787" stroke="#401A05" stroke-miterlimit="10" stroke-width=".7"/>
  <path d="m83.72 178.1-1.26 3.64-3.54 14.11 12.19 0.17-0.9-7-4-10.3-2.49-0.62z" fill="#549396" stroke="#401A05" stroke-miterlimit="10" stroke-width=".7"/>
  <path d="m86.92 158.7 4.69 11.39 7.1 3.08-7.53 21.56-7.67-17.2 3.41-18.83z" fill="#1D385E" stroke="#401A05" stroke-miterlimit="10" stroke-width=".7"/>
  <path d="m81.4 141.1 1.81 14.08-13.19 14.87-1.05 0.06 12.43-29.01z" fill="#E37B34" stroke="#401A05" stroke-miterlimit="10" stroke-width=".7"/>
  <path d="m69.9 169.9 13.92 6.42 8.09-30.07-2.86 1.13-19.15 22.52z" fill="#BC452B" stroke="#401A05" stroke-miterlimit="10" stroke-width=".7"/>
  <path d="m82.12 138.3 10.45 7.81-9.24 8.62-1.21-16.43z" fill="#549396" stroke="#401A05" stroke-miterlimit="10" stroke-width=".7"/>
  <path d="m79.76 138.1 4.2-5.13 9.95 7.05v5.66l-14.15-7.58z" fill="#E3B787" stroke="#401A05" stroke-miterlimit="10" stroke-width=".7"/>
  <path d="m93.62 139.3 9.8-2.44 5.57 4.55-15.08 4.5-0.29-6.61z" fill="#F2E7CA" stroke="#401A05" stroke-miterlimit="10" stroke-width=".7"/>
  <path d="m103.8 135.4 13.84-3.14 4.25 5.38-13.66 4.43-4.43-6.67z" fill="#84502A" stroke="#401A05" stroke-miterlimit="10" stroke-width=".7"/>
  <path d="m93.79 102.7-10.98 9.17 4.11 20.78 6.43 5.51 0.44-35.46z" fill="#549396" stroke="#401A05" stroke-miterlimit="10" stroke-width=".7"/>
  <path d="m81.74 110.9 10.35-7.71-6.98 18.78-3.37-11.07z" fill="#E37B34" stroke="#401A05" stroke-miterlimit="10" stroke-width=".7"/>
  <path d="m96.81 80.72 17.1-4.31 2.76 7.14-22.76 16.97 2.9-19.8z" fill="#549396" stroke="#401A05" stroke-miterlimit="10" stroke-width=".7"/>
  <path d="m106.6 70.11 6.94-4.5 5.56 2.58-7.4 8.84-5.1-6.92z" fill="#1D385E" stroke="#401A05" stroke-miterlimit="10" stroke-width=".7"/>
  <path d="m108 49.7 8.12-10.69 8.92-0.5 2.82-1.63-1.44-3.62-12.13-5.72-8.15 0.82 1.86 21.34z" fill="#1D385E" stroke="#401A05" stroke-miterlimit="10" stroke-width=".7"/>
  <path d="m79.81 22.67 2.76-2.86 10.14-0.36 7.54 3.08-10.07 5.81-2.3 3.72-8.07-6.86v-2.53z" fill="#1D385E" stroke="#401A05" stroke-miterlimit="10" stroke-width=".7"/>
  <path d="m82.84 20.25 13.71-6.59 10.67-0.56 8.68 5.28 3.61 9.45-21.8-6.71-14.87-0.87z" fill="#E3B787" stroke="#401A05" stroke-miterlimit="10" stroke-width="1.4"/>
  <path d="m108.2 13.41 8.8 4.97 2.8 9.31-5.49-1.3-6.11-12.98z" fill="#BC452B" stroke="#401A05" stroke-miterlimit="10" stroke-width=".7"/>
  <path d="m96.08 20.84 11.5-7.43 5.13 4.97 0.62 5.35-1.04 0.21-16.21-3.1z" fill="#E3B787" stroke="#401A05" stroke-miterlimit="10" stroke-width=".7"/>
  <path d="m89.69 26.32 1.27-2.24 13.75 1.07 3.85 9.89-7.35 4.88-4.5-8.62-3.69 1.06-2.9 1.73-1.2 1.32 0.77-9.09z" fill="#F2E7CA" stroke="#401A05" stroke-miterlimit="10" stroke-width=".7"/>
  <path d="m90.57 33.11 1.64 0.49-1.57 8.43-0.6-0.21-1.23-3.46 1.76-5.25z" fill="#E3B787" stroke="#401A05" stroke-miterlimit="10" stroke-width=".7"/>
  <path d="m96.49 31.6 8.12 1.79-3.46 2.58-2.61-1.17-2.05-3.2z" fill="#401A05" stroke="#401A05" stroke-miterlimit="10" stroke-width=".7"/>
  <path d="m104.6 26.25 3.43 8.69-6.94 4.62-4-7.95 7.51-5.36z" fill="#BC452B" stroke="#401A05" stroke-miterlimit="10" stroke-width=".7"/>
  <path d="m114.4 34.23-12.72 8.43-0.43 6.42 5.03-5.35 3.93-7.27 4.19-2.23z" fill="#BC452B" stroke="#401A05" stroke-miterlimit="10" stroke-width=".7"/>
  <path d="m114.6 35.1 0.5 4.36-4.5 6.67-0.19-8.04 4.19-2.99z" fill="#BC452B" stroke="#401A05" stroke-miterlimit="10" stroke-width=".7"/>
  <path d="m96.12 33-0.5 10.18-4.4 0.64 1.89-6.8 3.01-4.02z" fill="#F2E7CA" stroke="#401A05" stroke-miterlimit="10" stroke-width=".7"/>
  <path d="m95.48 42.76 4.73 1.27 0.93 5.19-8.43-5.54 2.77-0.92z" fill="#BC452B" stroke="#401A05" stroke-miterlimit="10" stroke-width=".7"/>
  <path d="m89.19 44.98 3.45-0.28 12.55 7-3.46 3.15-7.82-6.22-4.72-3.65z" fill="#BC452B" stroke="#401A05" stroke-miterlimit="10" stroke-width=".7"/>
  <path d="m109.2 37.48 0.93 1.89-1.76 26.94-7.83 4.5 0.5-4.81 8.16-28.52z" fill="#BC683D" stroke="#401A05" stroke-miterlimit="10" stroke-width=".7"/>
  <path d="m91.11 49.9-0.29 22.81 17.36-23.7-5.43 3.53-4.71-3.01-6.93 0.37z" fill="#BC452B" stroke="#401A05" stroke-miterlimit="10" stroke-width=".7"/>
  <path d="m93.91 50.04-1.57 6.67v8.36l4.04-8.85-1.62-6.35-0.85 0.17z" fill="#E37B34" stroke="#401A05" stroke-miterlimit="10" stroke-width=".7"/>
  <path d="m95.42 67.18 1.46 2.03 1.02 1.67 5-1.67 3.21-12.59 1.61-6.29-12.3 16.85z" fill="#84502A" stroke="#401A05" stroke-miterlimit="10" stroke-width=".7"/>
  <path d="m97.82 70.73 8.29-2.4 2 7.36-10 3.15-3.09-5.73 2.8-2.38z" fill="#BC452B" stroke="#401A05" stroke-miterlimit="10" stroke-width=".7"/>
</svg>