<svg xmlns="http://www.w3.org/2000/svg" width="250" height="250" fill="none" viewBox="0 0 250 250">
<!-- SVG created with Arrow, by QuiverAI (https://quiver.ai) -->
  <path d="m246.9 41h-243.5v167h243.5v-167z" fill="#FEFFFE" stroke="#060D1A" stroke-linecap="round" stroke-linejoin="round" stroke-width="1.3"/>
  <path d="m3.42 41h35.1v29.01h-13.22l-21.88-20.82v-8.19z" fill="#233F5E" stroke="#060D1A" stroke-linecap="round" stroke-linejoin="round" stroke-width="1.3"/>
  <path d="m38.86 41.4h22.81l-22.81 20.36v-20.36z" fill="#E5D4B6" stroke="#060D1A" stroke-linecap="round" stroke-linejoin="round" stroke-width="1.3"/>
  <path d="m39.03 62.05h27.09l19.25-20.65h-23.45l-22.89 20.36v0.29z" fill="#F0E9D3" stroke="#060D1A" stroke-linecap="round" stroke-linejoin="round" stroke-width="1.3"/>
  <path d="m38.71 62.41h21.39v17.65l-14.63 11.18h-6.61l-0.15-28.83z" fill="#2D8592" stroke="#060D1A" stroke-linecap="round" stroke-linejoin="round" stroke-width="1.3"/>
  <path d="m66.57 62.41h-8.1v15.6h16.34l-8.24-15.6z" fill="#D4B17D" stroke="#060D1A" stroke-linecap="round" stroke-linejoin="round" stroke-width="1.3"/>
  <path d="m3.42 50.29 19.44 19.2h-19.44v-19.2z" fill="#D4B17D" stroke="#060D1A" stroke-linecap="round" stroke-linejoin="round" stroke-width="1.3"/>
  <path d="m12.66 70.01 18.01 17.35-26.62 10.76-0.63-0.57v-27.54h9.24z" fill="#E2D3B4" stroke="#060D1A" stroke-linecap="round" stroke-linejoin="round" stroke-width="1.3"/>
  <path d="m4.05 99.32 16.31 16.59-10.5 22.17-6.15-4.99-0.29-0.27v-33.62l0.63 0.12z" fill="#D4B17D" stroke="#060D1A" stroke-linecap="round" stroke-linejoin="round" stroke-width="1.3"/>
  <path d="m4.06 158.8 16.1 17.31-16.74 17.62v-34.93h0.64z" fill="#E2D3B4" stroke="#060D1A" stroke-linecap="round" stroke-linejoin="round" stroke-width="1.3"/>
  <path d="m3.42 194.4 16.94-18.26 18.5 17.97v13.62h-35.44v-13.33z" fill="#233F5D" stroke="#060D1A" stroke-linecap="round" stroke-linejoin="round" stroke-width="1.3"/>
  <path d="m39.2 195.5 13.41 12.2h-13.75l0.34-12.2z" fill="#F0E9D3" stroke="#060D1A" stroke-linecap="round" stroke-linejoin="round" stroke-width="1.3"/>
  <path d="m39.13 187.9h40.59v19.78h-26.61l-13.98-15.37v-4.41z" fill="#C95922" stroke="#060D1A" stroke-linecap="round" stroke-linejoin="round" stroke-width="1.3"/>
  <path d="m79.72 186.2-15.28-15.1-25.15 16.74 40.43 0.06z" fill="#233F5D" stroke="#060D1A" stroke-linecap="round" stroke-linejoin="round" stroke-width="1.3"/>
  <path d="m38.86 157.3-18.2 18.83 18.2 17.59v-36.42z" fill="#2D8592" stroke="#060D1A" stroke-linecap="round" stroke-linejoin="round" stroke-width="1.3"/>
  <path d="m3.7 133.4 6.45 5.3 2.86-5.62 8.45 8.13-1.82 2.64c-0.66 1.9 1.08 4.6 3.68 3.51l1.29-0.49c-1.5 2.54 2.33 5.08 4.81 3.18l0.8-0.71c-0.98 1.93 0.79 5.09 3.96 4.04l1.15-0.62c-1.06 1.52 0.15 5.38 2.9 5.42l2.12-1.11 1.29-0.31c0.29 2.44 4.75 3.41 6.01 0.44l1.34-2.17 14.21 15.13 16.76-10.99v-25.99l-6.7 4.75-2.86-3.93-8.13 8.14-18.65-19.71-7.27 5.76c-2.6 1.26-5.94-0.95-7.91-2.5l5.34-5.53 3.83-4.16-17.44-0.22-7.12 16.34" fill="#233F5D"/>
  <path d="m3.7 133.4 6.45 5.3 2.86-5.62 8.45 8.13-1.82 2.64c-0.66 1.9 1.08 4.6 3.68 3.51l1.29-0.49c-1.5 2.54 2.33 5.08 4.81 3.18l0.8-0.71c-0.98 1.93 0.79 5.09 3.96 4.04l1.15-0.62c-1.06 1.52 0.15 5.38 2.9 5.42l2.12-1.11 1.29-0.31c0.29 2.44 4.75 3.41 6.01 0.44l1.34-2.17 14.21 15.13 16.76-10.99v-25.99l-6.7 4.75-2.86-3.93-8.13 8.14-18.65-19.71-7.27 5.76c-2.6 1.26-5.94-0.95-7.91-2.5l5.34-5.53 3.83-4.16-17.44-0.22-7.12 16.34" stroke="#060D1A" stroke-linecap="round" stroke-linejoin="round" stroke-width="1.3"/>
  <path d="m22.01 145.1 2.19-5.92c1.86-2.47 4.5-2.94 6.07-0.63 1.1 1.7 0.21 3.6-0.25 4.21l-4.79 5.04c-2.16 1.26-3.95-0.6-3.22-2.7z" fill="#D5BCA3" stroke="#060D1A" stroke-linecap="round" stroke-linejoin="round" stroke-width="1.3"/>
  <path d="m26.69 148 4.6-6.09c2.43-2.16 4.69-0.93 4.86 0.51 0.27 1.48-0.52 2.92-1.27 3.75l-4.51 4.23c-2.16 1.33-4.66 0-3.68-2.4z" fill="#D5BCA3" stroke="#060D1A" stroke-linecap="round" stroke-linejoin="round" stroke-width="1.3"/>
  <path d="m30.66 152.5 4.29-5.03c1.81-1.76 4.56-0.8 4.79 0.84 0.35 1.42-0.57 2.85-1.37 3.78l-2.66 3.27c-2.09 1.72-5.6 0.14-5.05-2.86z" fill="#D5BCA3" stroke="#060D1A" stroke-linecap="round" stroke-linejoin="round" stroke-width="1.3"/>
  <path d="m40.35 155.2 3.24-4.23c2.1-1.94 5.32-0.5 5.19 2.05l-1.29 3.14c-1.92 2.87-6.4 2.05-7.14-0.96z" fill="#233F5D" stroke="#060D1A" stroke-linecap="round" stroke-linejoin="round" stroke-width="1.3"/>
  <path d="m43.62 141.1 8.22 11.31c2.37 2.54 5.97-0.23 4.65-3.24 1.17 1.1 3.5 0.42 4.28-0.88 0.88-1.3 0.74-2.58 0.12-3.5l-12.78-9.38" fill="#233F5D"/>
  <path d="m43.62 141.1 8.22 11.31c2.37 2.54 5.97-0.23 4.65-3.24 1.17 1.1 3.5 0.42 4.28-0.88 0.88-1.3 0.74-2.58 0.12-3.5l-17.27-22.37" stroke="#060D1A" stroke-linecap="round" stroke-linejoin="round" stroke-width="1.3"/>
  <path d="m80.03 160-0.31 26.41v0.95l-15.66-16.73 15.97-10.63z" fill="#D4B17D" stroke="#060D1A" stroke-linecap="round" stroke-linejoin="round" stroke-width="1.3"/>
  <path d="m83.91 41.4 24.2 16.72 16.3-17.12h-38.4l-2.1 0.4z" fill="#2D8592" stroke="#060D1A" stroke-linecap="round" stroke-linejoin="round" stroke-width="1.3"/>
  <path d="m124.4 41h38.73l-9.25 16.91-20.17-8.86-9.41 2.37 0.1-10.42z" fill="#233F5D" stroke="#060D1A" stroke-linecap="round" stroke-linejoin="round" stroke-width="1.3"/>
  <path d="m164.7 41.4 26.62 0.31v20.47h-8.45l-18.17-20.12v-0.66z" fill="#F0E9D3" stroke="#060D1A" stroke-linecap="round" stroke-linejoin="round" stroke-width="1.3"/>
  <path d="m192.1 41.71h17.68v20.2l-18.1 0.35 0.42-20.55z" fill="#E5D4B6" stroke="#060D1A" stroke-linecap="round" stroke-linejoin="round" stroke-width="1.3"/>
  <path d="m210.5 41.71h36.23l-0.8 2.97-25.7 24.81-9.89 0.52 0.16-28.3z" fill="#D4B17D" stroke="#060D1A" stroke-linecap="round" stroke-linejoin="round" stroke-width="1.3"/>
  <path d="m220.7 70.01h26v7.94l-26.3 0.05 0.3-7.99z" fill="#2D8592" stroke="#060D1A" stroke-linecap="round" stroke-linejoin="round" stroke-width="1.3"/>
  <path d="m210.3 70.01h9.86v7.76h-9.86v-7.76z" fill="#F0E9D3" stroke="#060D1A" stroke-linecap="round" stroke-linejoin="round" stroke-width="1.3"/>
  <path d="m210.3 78.53 36.1 19.93-15.63 14.69-1.31-0.94-0.41-8.4-6.23-4.49-4.94 4.61-5.89-2.1-0.98-4.76-6.93 0.34-1.89 5.85-5.78-2.84-4.33-0.81-6.74 3.97 1.14 5.84-3.12 3.5-19.2-14.58 9.89-20.04 36.25 0.23z" fill="#E2D3B4" stroke="#060D1A" stroke-linecap="round" stroke-linejoin="round" stroke-width="1.3"/>
  <path d="m246.4 99.26-15.51 14.32 5.95 18.28 2.39 4.25 7.02-2.72 0.39-0.68-0.24-33.45z" fill="#2D8592" stroke="#060D1A" stroke-linecap="round" stroke-linejoin="round" stroke-width="1.3"/>
  <path d="m246.4 143-5.34 0.3-2.32 3.4 4.14 7.56-4.83 7.25-5.49-2.34-3.4 3.59 1.53 5.19-7.57 4.26-4.35-4.26-5.33 0.76-1.68 5.76-7.91-0.57-1.8-5.95-5.61-0.95-3.83 4.61-7.41-4.01 1.63-5.5-5.33-3.79-4.34 2.54-4.34-7.08 4.05-5.38-2.12-4.98-5.53-0.56 1.06-9.95 4.47 4.08 3.83-3.99 11.46-16.99 38.02-0.18 9.33 17.93-8.23 8.35-1.1 2.4c-0.55 2.61-3 3.51-4.94 2.61 0.52 2.83-2.44 5.91-5.4 4.09l-1.4 5.8c-2.68 2.77-5.26 0.68-6.54-1.19-1.88 3.82-6.65 4.51-9.12 1.18l-2.61-0.77-5.97-2.85-6.49-7.27 2.24-7.42 4.25-2.44 3.76 1.9 1.29 4 3.25-1.24 2.86 1.69 0.98 2.61h2.76l2.07 1.67 1.4-0.77 2.36 1.32 2.61-0.55 3.76-1.22 2.85-2.89 1.09-1.36 4.31 1.4" fill="#D4B17D"/>
  <path d="m246.4 143-5.34 0.3-2.32 3.4 4.14 7.56-4.83 7.25-5.49-2.34-3.4 3.59 1.53 5.19-7.57 4.26-4.35-4.26-5.33 0.76-1.68 5.76-7.91-0.57-1.8-5.95-5.61-0.95-3.83 4.61-7.41-4.01 1.63-5.5-5.33-3.79-4.34 2.54-4.34-7.08 4.05-5.38-2.12-4.98-5.53-0.56 1.06-9.95 4.47 4.08 3.83-3.99 11.46-16.99 38.02-0.18 9.33 17.93-8.23 8.35-1.1 2.4c-0.55 2.61-3 3.51-4.94 2.61 0.52 2.83-2.44 5.91-5.4 4.09l-1.4 5.8c-2.68 2.77-5.26 0.68-6.54-1.19-1.88 3.82-6.65 4.51-9.12 1.18l-2.61-0.77-5.97-2.85-6.49-7.27 2.24-7.42 4.25-2.44 3.76 1.9 1.29 4 3.25-1.24 2.86 1.69 0.98 2.61h2.76l2.07 1.67 1.4-0.77 2.36 1.32 2.61-0.55 3.76-1.22 2.85-2.89 1.09-1.36 4.31 1.4" stroke="#060D1A" stroke-linecap="round" stroke-linejoin="round" stroke-width="1.3"/>
  <path d="m246.2 167.7-19.83 20.76 20.29 19.23-0.23-39.69-0.23-0.3z" fill="#CF9F4B" stroke="#060D1A" stroke-linecap="round" stroke-linejoin="round" stroke-width="1.3"/>
  <path d="m210.6 173 0.56 1.08 35.08 33.62h-36.17l0.53-34.7z" fill="#233F5D" stroke="#060D1A" stroke-linecap="round" stroke-linejoin="round" stroke-width="1.3"/>
  <path d="m209.4 188.5v19.46l-39.2-0.23 25.79-19.53 13.41 0.3z" fill="#F0E9D3" stroke="#060D1A" stroke-linecap="round" stroke-linejoin="round" stroke-width="1.3"/>
  <path d="m209.5 170.6-0.12 17.05-13.8 0.29v-18.72l3.21-0.35 4.09 5.05h5.02l1.6-3.32z" fill="#F0E9D3" stroke="#060D1A" stroke-linecap="round" stroke-linejoin="round" stroke-width="1.3"/>
  <path d="m194.1 172.5-41.46-0.18v15.37l41.69 0.17-0.23-15.36z" fill="#2D8592" stroke="#060D1A" stroke-linecap="round" stroke-linejoin="round" stroke-width="1.3"/>
  <path d="m147.2 187.9 22 0.06v19.66l-44.11 0.12c9.17-5.48 17.96-12.24 22.11-19.84z" fill="#F0E9D3" stroke="#060D1A" stroke-linecap="round" stroke-linejoin="round" stroke-width="1.3"/>
  <path d="m169.2 132.8v39.55l-17.02-0.17 0.12-52.44 0.98 0.39 15.92 12.67z" fill="#F0E9D3" stroke="#060D1A" stroke-linecap="round" stroke-linejoin="round" stroke-width="1.3"/>
  <path d="m163.7 41.4 18.1 21.36-14.11 26.69-23.07-12.49 19.08-35.56z" fill="#2D8592" stroke="#060D1A" stroke-linecap="round" stroke-linejoin="round" stroke-width="1.3"/>
  <path d="m164 98.34 20.76 15.77 0.98 1.9-11.53 21.93-22-19.02 11.79-20.58z" fill="#233F5D" stroke="#060D1A" stroke-linecap="round" stroke-linejoin="round" stroke-width="1.3"/>
  <path d="m182.9 62.41h26.85v15.36l-35.04 0.18 8.19-15.54z" fill="#233F5D" stroke="#060D1A" stroke-linecap="round" stroke-linejoin="round" stroke-width="1.3"/>
  <path d="m209.9 83.02 36.04 15.61-14.83 14.69-2.47 1.8h-40.76l-4.34-3.1 6.74-6.66-2.95-2.21 4.8-3.05 4.5 3.31 5.33 0.4 2.79-6.62h5.99l0.99 5.3 6.45 2.15 4.47-5.44 7.29 3.95-1.83 4.98 2.75 2.15 1.41-1.22" fill="#2D8592" stroke="#060D1A" stroke-linecap="round" stroke-linejoin="round" stroke-width="1.3"/>
  <path d="m194.5 125.9 8.89-9.5h1.2l3.7 4.18-7.6 7.13c-3.3 1.05-5.1-0.89-6.19-1.81z" fill="#D4B17D" stroke="#060D1A" stroke-linecap="round" stroke-linejoin="round" stroke-width="1.3"/>
  <path d="m186.1 144 4.96-6.25c2.06-1.7 4.46-0.71 5.31 1.16 0.69 1.54-0.19 3.22-1.19 4.34l-4.12 4.33c-2.76 1.94-6-0.35-4.96-3.58z" fill="#D5BCA3" stroke="#060D1A" stroke-linecap="round" stroke-linejoin="round" stroke-width="1.3"/>
  <path d="m192.4 147.5 4.32-5.38c2.09-2.16 4.43-1.56 5.41 0.15 0.98 1.44-0.05 3.74-1.37 5.03l-4.33 4.51c-2.31 1.5-5.9-0.97-4.03-4.31z" fill="#D5BCA3" stroke="#060D1A" stroke-linecap="round" stroke-linejoin="round" stroke-width="1.3"/>
  <path d="m197.2 152.7 5.5-5.67c1.92-1.4 4.61 0.41 4.84 2.18 0.19 1.3-0.46 2.54-1.24 3.34l-3.6 5.48c-2.5 1.3-6.33-1.24-5.5-5.33z" fill="#D5BCA3" stroke="#060D1A" stroke-linecap="round" stroke-linejoin="round" stroke-width="1.3"/>
  <path d="m212.6 123.2 15.46 17.54c1.65 2.47 0 5.97-3.22 5.74l-11.11-10.61" stroke="#060D1A" stroke-linecap="round" stroke-linejoin="round" stroke-width="1.3"/>
  <path d="m85.81 41.4 22.41 43.91-8.1 22.71-6.93 3.34-25.84-49.03 18.46-20.93z" fill="#2D8592" stroke="#060D1A" stroke-linecap="round" stroke-linejoin="round" stroke-width="1.3"/>
  <path d="m93.51 58.04 14.22-0.13-3.04 10.92 3.18 11.09 0.15 6.39-4.09-6.25-10.42-22.02z" fill="#E2D3B4" stroke="#060D1A" stroke-linecap="round" stroke-linejoin="round" stroke-width="1.3"/>
  <path d="m133.9 49.05 8.29 8.26 2.61 11.52-3.42 10.78-6 5.7-11 4.14-12.1-4.14-5.88-6.78-1.97-9.7 3.27-11.19 7.58-8.59h9.1 9.52z" fill="#B1281B" stroke="#060D1A" stroke-linecap="round" stroke-linejoin="round" stroke-width="1.3"/>
  <path d="m124.4 50.81v38.3" stroke="#060D1A" stroke-linecap="round" stroke-linejoin="round" stroke-width="1.3"/>
  <path d="m112.8 52.21 10.99 10.78" stroke="#060D1A" stroke-linecap="round" stroke-linejoin="round" stroke-width="1.3"/>
  <path d="m105.1 65.43 11.6 1.79" stroke="#060D1A" stroke-linecap="round" stroke-linejoin="round" stroke-width="1.3"/>
  <path d="m106.9 79.61 10.31-6.53" stroke="#060D1A" stroke-linecap="round" stroke-linejoin="round" stroke-width="1.3"/>
  <path d="m120.4 76.61-4.27 8.93" stroke="#060D1A" stroke-linecap="round" stroke-linejoin="round" stroke-width="1.3"/>
  <path d="m130.3 75.78 3.41 9.3" stroke="#060D1A" stroke-linecap="round" stroke-linejoin="round" stroke-width="1.3"/>
  <path d="m131.6 71.28 11.46 5.33" stroke="#060D1A" stroke-linecap="round" stroke-linejoin="round" stroke-width="1.3"/>
  <path d="m132.5 65.12 11.35-1.32" stroke="#060D1A" stroke-linecap="round" stroke-linejoin="round" stroke-width="1.3"/>
  <path d="m128.1 59.82 8.1-9.52" stroke="#060D1A" stroke-linecap="round" stroke-linejoin="round" stroke-width="1.3"/>
  <path d="m124.4 58.41c-6.45 0-9.4 5.29-9.4 9.65 0 5.62 4.21 9.71 9.4 9.71 5.68 0 9.14-4.54 9.14-9.36 0-4.98-4-10-9.14-10z" fill="#CF9F4B" stroke="#060D1A" stroke-linecap="round" stroke-linejoin="round" stroke-width="1.3"/>
  <path d="m143.9 76.61 23.26 13.07-26.35 53.04-2.75-1.22-17.94-37.81-3.47 8.52-4.61-10.06-9.3 3.56 5.64-20.81 5.12 1.71 10.24 2.44 13.85-4.84 6.31-7.6z" fill="#2D8592" stroke="#060D1A" stroke-linecap="round" stroke-linejoin="round" stroke-width="1.3"/>
  <path d="m143.8 77.02 23.15 12.59-21.73 16.91-7.79-4.03-4.09 10.19-9.64-22.47 5.53-4.11 8.23-1.68 6.34-7.4z" fill="#D4B17D" stroke="#060D1A" stroke-linecap="round" stroke-linejoin="round" stroke-width="1.3"/>
  <path d="m118.9 103.5 4.3-12.38 4.76 12.08-3.63 7.93-5.43-7.63z" fill="#F0E9D3" stroke="#060D1A" stroke-linecap="round" stroke-linejoin="round" stroke-width="1.3"/>
  <path d="m96.36 119.1 12.79 23.01-0.79 0.61h33.25l-18.5-36.71-6.56 6.7-4.34-10.65-18.7 9.13 2.85 7.91z" fill="#2D8592" stroke="#060D1A" stroke-linecap="round" stroke-linejoin="round" stroke-width="1.3"/>
  <path d="m79.81 133.8 16.71-14.84v23.19l-16.16 18.1-0.55-26.45z" fill="#C95922" stroke="#060D1A" stroke-linecap="round" stroke-linejoin="round" stroke-width="1.3"/>
  <path d="m80.53 160.5 15.68 13.11v-31.51l-15.68 18.4z" fill="#233F5D" stroke="#060D1A" stroke-linecap="round" stroke-linejoin="round" stroke-width="1.3"/>
  <path d="m80.36 160.3 16.11 14.44c1.29 7.7 4.59 13.95 9.91 19.76l-15 13.3-11.02-0.12v-47.38z" fill="#2D8592" stroke="#060D1A" stroke-linecap="round" stroke-linejoin="round" stroke-width="1.3"/>
  <path d="m102 207.7 17.03-0.18-5.65-3.49-7.24-9.33-14.1 12.73 9.96 0.27z" fill="#233F5D" stroke="#060D1A" stroke-linecap="round" stroke-linejoin="round" stroke-width="1.3"/>
  <path d="m97.11 142.7h54.21c-1.26 11.34 1.87 23.22-1.21 35.15-4.38 16.81-17.97 24.51-25.7 29.65-12.68-8.67-27.19-17.41-27.3-37.49v-27.31z" fill="#CF9F4B" stroke="#060D1A" stroke-linecap="round" stroke-linejoin="round" stroke-width="1.3"/>
  <path d="m102.2 148.5h44.39v18.49l-1.43 11.05-5.46 14.69-15.31 9.37-15.2-12.01-5.72-12.2-1.38-10.9 0.11-18.49z" fill="#B1281B" stroke="#060D1A" stroke-linecap="round" stroke-linejoin="round" stroke-width="1.3"/>
  <path d="m124.4 143v5.44l6.6 16.76 20.31 2.15" stroke="#060D1A" stroke-linecap="round" stroke-linejoin="round" stroke-width="1.3"/>
  <path d="m124.4 148.4-7.19 16.8-15.17 2.11 13.67 7.88-4.61 14.92 13.3-11.2 13.67 11.88-4.61-15.37 12.79-8.11-18.5-1.88-3.35-17.03z" fill="#CF9F4B" stroke="#060D1A" stroke-linecap="round" stroke-linejoin="round" stroke-width="1.3"/>
  <path d="m124.4 173.6v33.19" stroke="#060D1A" stroke-linecap="round" stroke-linejoin="round" stroke-width="1.3"/>
  <path d="m38.43 85.46h1.21c4.18 0 5.8 3.2 5.8 5.28 0 3.91-2.89 6.16-6.62 6.16s-6.08-2.67-6.08-5.92c0-2.72 2.1-5.52 5.69-5.52z" fill="#233F5D" stroke="#060D1A" stroke-linecap="round" stroke-linejoin="round" stroke-width="1.3"/>
  <path d="m38.86 92.68v23.52l16.66-0.19h6.19l11.49 21.81 23.01-19.7-11.55-19.1-23.49 16.99-22.31 0.18" fill="#E2D3B4"/>
  <path d="m38.86 92.68v23.52l16.66-0.19h6.19l11.49 21.81 23.01-19.7-11.55-19.1-23.49 16.99-22.31 0.18" stroke="#060D1A" stroke-linecap="round" stroke-linejoin="round" stroke-width="1.3"/>
  <path d="m44.69 91.24h13.3v24.38l-19.13 0.39 0.27-17.97 5.56-6.8z" fill="#2D8592" stroke="#060D1A" stroke-linecap="round" stroke-linejoin="round" stroke-width="1.3"/>
  <path d="m58.62 78.53 22.3 22.75-21.47 14.63-0.83-0.29v-37.09z" fill="#D4B17D" stroke="#060D1A" stroke-linecap="round" stroke-linejoin="round" stroke-width="1.3"/>
  <path d="m151.8 120.5v21.89l-11.06 0.19 11.06-22.08z" fill="#F0E9D3" stroke="#060D1A" stroke-linecap="round" stroke-linejoin="round" stroke-width="1.3"/>
</svg>