<svg xmlns="http://www.w3.org/2000/svg" width="256" height="256" fill="none" viewBox="0 0 256 256">
<!-- SVG created with Arrow, by QuiverAI (https://quiver.ai) -->
  <path d="m205.4 3.49h-155.9v248.8h155.9v-248.8z" fill="#FEFFFE"/>
  <path d="m49.82 3.69 60.16 0.03 0.13 14.47-25.84 17.13-34.25-31.63h-0.2z" fill="#F0E3C7" stroke="#3B230F" stroke-linecap="round" stroke-linejoin="round" stroke-width="1.73"/>
  <path d="m109.9 3.84 27.18 0.11-26.95 14.24-0.23-14.35z" fill="#2B8A92" stroke="#3B230F" stroke-linecap="round" stroke-linejoin="round" stroke-width="1.73"/>
  <path d="m147.2 3.83 57.73 0.01-32.17 32.92-29.15-20.07 3.59-12.86z" fill="#ECB322" stroke="#3B230F" stroke-linecap="round" stroke-linejoin="round" stroke-width="1.73"/>
  <path d="m204.9 3.84-32.17 32.92 12.95 7.97 0.45 3.94 18.77 0.16v-44.99z" fill="#D05F2B" stroke="#3B230F" stroke-linecap="round" stroke-linejoin="round" stroke-width="1.73"/>
  <path d="m204.9 48.83-18.77-0.16-0.15 4.06-39.14 23.06 58.06 0.04v-27z" fill="#E8D7BA" stroke="#3B230F" stroke-linecap="round" stroke-linejoin="round" stroke-width="1.73"/>
  <path d="m145.6 19.17 40.4 25.56v8l-39.97 23.11-0.16-13.12 26.28-14.47-26.67-15.04 0.12-14.04z" fill="#C52622" stroke="#3B230F" stroke-linecap="round" stroke-linejoin="round" stroke-width="1.73"/>
  <path d="m143.6 16.69-15.87 44.86v14.24h19.13l25.29-14.24-0.48-13.44-26.19-14.9-1.88-16.52z" fill="#E5CBA9" stroke="#3B230F" stroke-linecap="round" stroke-linejoin="round" stroke-width="1.73"/>
  <path d="m49.82 5.06 33.43 30.97-14.24 8.45v4.19l-19.19-0.16v-43.45z" fill="#DECBA8" stroke="#3B230F" stroke-linecap="round" stroke-linejoin="round" stroke-width="1.73"/>
  <path d="m49.82 48.91 19.19-0.24v4.19l9.9 6.17-0.16 16.76-28.93 0.24v-27.12z" fill="#E5D1B1" stroke="#3B230F" stroke-linecap="round" stroke-linejoin="round" stroke-width="1.73"/>
  <path d="m50.14 76.28 28.32 0.32 0.37 51.26-28.69 0.08v-51.66z" fill="#D15E28" stroke="#3B230F" stroke-linecap="round" stroke-linejoin="round" stroke-width="1.73"/>
  <path d="m50.28 128.6 15.39 14.35-0.11 70.57h-15.74l0.46-84.92z" fill="#2B8993" stroke="#3B230F" stroke-linecap="round" stroke-linejoin="round" stroke-width="1.73"/>
  <path d="m49.82 213.8 28.04 0.17-15.14 19.99 4.29 6.17-17.19 12.07v-38.4z" fill="#E8D8B9" stroke="#3B230F" stroke-linecap="round" stroke-linejoin="round" stroke-width="1.73"/>
  <path d="m52.13 251.4 15.79-11.32 59.95-0.15-0.27 11.68-75.47-0.21z" fill="#D8B983" stroke="#3B230F" stroke-linecap="round" stroke-linejoin="round" stroke-width="1.73"/>
  <path d="m127.7 239.9 61.1 0.05 16.09 12.17-77.4-0.54 0.21-11.68z" fill="#F1E8D0" stroke="#3B230F" stroke-linecap="round" stroke-linejoin="round" stroke-width="1.73"/>
  <path d="m189.1 239.6 15.37 11.92v-37.3l-29.3-0.3 16.7 20.58-2.77 5.1z" fill="#E8D7BC" stroke="#3B230F" stroke-linecap="round" stroke-linejoin="round" stroke-width="1.73"/>
  <path d="m204.8 212.9-29.15-0.06-0.02-28.39 0.75-0.07 28.42-0.13v28.65z" fill="#D6B986" stroke="#3B230F" stroke-linecap="round" stroke-linejoin="round" stroke-width="1.73"/>
  <path d="m204.7 183.6-29.11 0.1 0.14-28.75 2.31-0.54 26.74-0.24-0.08 29.43z" fill="#F0E6CE" stroke="#3B230F" stroke-linecap="round" stroke-linejoin="round" stroke-width="1.73"/>
  <path d="m184.4 76.51 20.26-0.15v39.38h-8.78l-1.62-3.09-5.02-3.23-1.26-23.05-3.58-9.86z" fill="#1D4266" stroke="#3B230F" stroke-linecap="round" stroke-linejoin="round" stroke-width="1.73"/>
  <path d="m204.4 115.6-8.73-0.29-4.53 4.19-2.39 26.23-5.38 7.84 21.35 0.16-0.32-38.13z" fill="#1E4266" stroke="#3B230F" stroke-linecap="round" stroke-linejoin="round" stroke-width="1.73"/>
  <path d="m127.9 77h17.97c-3.92 2.87-2.11 16.79-2.32 21.19-0.26 5.75-0.4 13.24-6.57 13.07v8c8.51 0 6.64 9.86 6.64 17.35 0 9.64 3.14 16.8 13.64 17.17l-29.36 0.16v-76.94z" fill="#E8DCCE" stroke="#3B230F" stroke-linecap="round" stroke-linejoin="round" stroke-width="1.73"/>
  <path d="m136.9 115.2c7.34-0.19 7.91 7.18 7.77 15.23-0.2 11.4-0.96 22.62 12.36 23.59l5.85-0.06 0.14-9.2c-7.85 0-9.96 0.53-9.96-10.87 0-7.39 0.51-15.39-6.27-18.17 6.42-2.09 6.39-11.11 6.27-15.54-0.32-10.74 0.51-14.08 9.71-14.08v-9.57l-5.6 0.22c-10.8 0-13.14 7.33-13.14 16.43 0 8.26 1.1 18.1-7.13 18.1v3.92z" fill="#1E4266" stroke="#3B230F" stroke-linecap="round" stroke-linejoin="round" stroke-width="1.73"/>
  <path d="m170.7 76.51 5.3 0.21c8.26 0 13.04 5.56 13.04 14.8v11.57c0 5.56 1.52 8.98 6.44 8.98v7.49c-5.56 0-7.08 3.02-7.08 11.28v8.75c0 8.26-4.67 14.19-13.66 14.19h-4.04v-8.51c7.08 0 9.68 0 9.68-9.24v-7.12c0-5.85 2.06-11.42 6.14-12.59-4.82-2.06-6.26-7.61-6.26-13.6v-7.49c0-8.51-2.48-9.61-9.56-9.61v-9.11z" fill="#ECB323" stroke="#3B230F" stroke-linecap="round" stroke-linejoin="round" stroke-width="1.73"/>
  <path d="m137.7 3.83h10.07l-20.06 57.03-9.79 26.56-14.67 16.99v-1.41l6.96-21.35 27.49-77.82z" fill="#D2612C" stroke="#3B230F" stroke-linecap="round" stroke-linejoin="round" stroke-width="1.73"/>
  <path d="m109.8 19.7-40.74 25.14v8l40.74 23.32v-13.74l-26.29-14.13 26.67-14.92-0.38-13.67z" fill="#E7B123" stroke="#3B230F" stroke-linecap="round" stroke-linejoin="round" stroke-width="1.73"/>
  <path d="m109.8 76.16-30.37-17.13v68.09l23.24-22.87 7.13-28.09z" fill="#ECB323" stroke="#3B230F" stroke-linecap="round" stroke-linejoin="round" stroke-width="1.73"/>
  <path d="m103.1 104.6-22.32 23.1h22.32v-23.1z" fill="#C22822" stroke="#3B230F" stroke-linecap="round" stroke-linejoin="round" stroke-width="1.73"/>
  <path d="m102.9 127.9 24.37 25.27v-25.27h-24.37z" fill="#E6B422" stroke="#3B230F" stroke-linecap="round" stroke-linejoin="round" stroke-width="1.73"/>
  <path d="m127.4 64.46-9.44 22.96-14.25 16.64-0.26 22.73h23.69l0.26-62.33z" fill="#DAB367" stroke="#3B230F" stroke-linecap="round" stroke-linejoin="round" stroke-width="1.73"/>
  <path d="m102.5 127.9-51.35 0.15 28.67 25.66 22.86-0.13-0.18-25.68z" fill="#DAC6A7" stroke="#3B230F" stroke-linecap="round" stroke-linejoin="round" stroke-width="1.73"/>
  <path d="m65.71 142.6 13.86 12.23v58.62l-14.01-0.16 0.15-70.69z" fill="#F1E7D0" stroke="#3B230F" stroke-linecap="round" stroke-linejoin="round" stroke-width="1.73"/>
  <path d="m80.71 154.2 94.9-0.54-0.24 59.19-94.73-0.05 0.07-58.6z" fill="#288A93" stroke="#3B230F" stroke-linecap="round" stroke-linejoin="round" stroke-width="1.73"/>
  <path d="m85.71 156.4 85.8 0.21-3.1 5.45 0.02 47.16-81.34-0.26v-46.47l-1.38-6.09z" fill="#1A3F60" stroke="#3B230F" stroke-linecap="round" stroke-linejoin="round" stroke-width="1.73"/>
  <path d="m88.73 162.1 28.89 29.44-0.3-29.36-28.59-0.08z" fill="#E4D9BA" stroke="#3B230F" stroke-linecap="round" stroke-linejoin="round" stroke-width="1.73"/>
  <path d="m117.9 162.3 49.15-0.08-47.07 29.37-2.38-0.76 0.3-28.53z" fill="url(#paint0_linear_1367_5047)" stroke="#3B230F" stroke-linecap="round" stroke-linejoin="round" stroke-width="1.73"/>
  <path d="m88.72 163.8-0.49 43.83 28.6-16.03-28.11-27.8z" fill="#DEBD89" stroke="#3B230F" stroke-linecap="round" stroke-linejoin="round" stroke-width="1.73"/>
  <path d="m118 191.1 17.8-10.75v27.03l-17.8-16.28z" fill="#ECB422" stroke="#3B230F" stroke-linecap="round" stroke-linejoin="round" stroke-width="1.73"/>
  <path d="m136 180.3 16.27-9.24-0.13 37.64-16.14-0.31v-28.09z" fill="#D25D29" stroke="#3B230F" stroke-linecap="round" stroke-linejoin="round" stroke-width="1.73"/>
  <path d="m152.6 170.8 15.47-8.19-0.07 45.7-15.7 0.2 0.3-37.71z" fill="#CF2822" stroke="#3B230F" stroke-linecap="round" stroke-linejoin="round" stroke-width="1.73"/>
  <path d="m86.3 213.9-8.89 12.39 100.1-0.34-9.05-11.99-82.13-0.06z" fill="#2B8A92" stroke="#3B230F" stroke-linecap="round" stroke-linejoin="round" stroke-width="1.73"/>
  <path d="m136 213.8 10.24 19.45 43.68-0.24 1.54 0.94-3.66 6.03-120.3-0.58-4.1-5.45 1.68-0.94h47.56l-3.47 0.09 4.06-6.82 30.09-0.21-7.34-12.27z" fill="#163A5B" stroke="#3B230F" stroke-linecap="round" stroke-linejoin="round" stroke-width="1.73"/>
  <path d="m138.2 213.9 30.72 0.12 8.26 11.29-32.54-0.09-6.44-11.32z" fill="url(#paint1_linear_1367_5047)" stroke="#3B230F" stroke-linecap="round" stroke-linejoin="round" stroke-width="1.73"/>
  <path d="m127.7 154.2h44.42l-3.83 5.64h-40.7l0.11-5.64z" fill="#2D8B94" stroke="#3B230F" stroke-linecap="round" stroke-linejoin="round" stroke-width="1.73"/>
  <path d="m108.1 87.31 10.1 0.08-13.48 14.77 3.38-14.85z" fill="#CF4727" stroke="#3B230F" stroke-linecap="round" stroke-linejoin="round" stroke-width="1.73"/>
  <defs>
    <linearGradient id="paint0_linear_1367_5047" x1="143.1" x2="142.4" y1="161.4" y2="186.9" gradientUnits="userSpaceOnUse">
      <stop stop-color="#FEFFFE" offset="0"/>
      <stop stop-color="#F8D593" offset="1"/>
    </linearGradient>
    <linearGradient id="paint1_linear_1367_5047" x1="149.8" x2="163.8" y1="213.1" y2="227.9" gradientUnits="userSpaceOnUse">
      <stop stop-color="#F9D298" offset="0"/>
      <stop stop-color="#FFEBB8" offset="1"/>
    </linearGradient>
  </defs>
</svg>