<svg xmlns="http://www.w3.org/2000/svg" width="250" height="250" viewBox="0 0 250 250">
<!-- SVG created with Arrow, by QuiverAI (https://quiver.ai) -->
  <path d="m246.8 45h-35.94l-23.08 24.91 16.74-24.9h-35.25l-8.32 14.57-2.45-14.58-19.2 13.38 0.27-13.37h-6.22l-21.96 12.34-19.94-12.37-46.67 0.02 10.02 12.71-21.16-12.73h-29.6v22.15l36.97 19.69-0.85 1.97-36.16-14.99 6.89 27.53-6.84-0.82 13.12 23.98-12.96 15.32h5.32l-5.49 8.76 14.66 3.24-15.08 15.29 9.43-3.59-9.01 19.46v21.25l34.8-0.09 5.88 0.09h17.41l8.81-6.45 17.7-9.12-8.58 15.57h11.26l18.92-13.3-1 13.3h15.38l12.98-13.09 21.04 13.09h87.87v-22.83l-41.58-20.69 3.75 1.24 1.44-1.27 36.38 13.72-8.11-26.11 8.12 0.46-14.32-24.11 14.08-14.94-13.96-4.49 13.76-21.09-10.62 2.95 11.35-21.06v-21z" fill="#F3E6C2" stroke="#3D2517" stroke-linejoin="round" stroke-width="1.7"/>
  <path d="m193.8 65.41 14.16 5.93 2.39-26.15-22.62 24.73 6.07-4.51z" fill="#E7AE20" stroke="#3D2517" stroke-linejoin="round" stroke-width="1.4"/>
  <path d="m227.9 57.02 18.85 8.98v-21.02l-18.85 12.04z" fill="#F3E6C2" stroke="#3D2517" stroke-linejoin="round" stroke-width="1.6"/>
  <path d="m245.8 66.6-21.06 11.15 2.9-20.28 18.16 9.13z" fill="#E8D6B6" stroke="#3D2517" stroke-linejoin="round" stroke-width="1.4"/>
  <path d="m245.2 67.03-9.91 20.3-26.96 8.35 15.11-17.08 21.76-11.57z" fill="#D25E2C" stroke="#3D2517" stroke-linejoin="round" stroke-width="1.4"/>
  <path d="m216.4 94.49 15.58 2.66 14.14-12.95-29.72 10.29z" fill="#F3E6C2" stroke="#3D2517" stroke-linejoin="round" stroke-width="1.4"/>
  <path d="m216.9 94.98 28.79 7.44-37.26 12.7-5.77-15.33 14.24-4.81z" fill="#1C3C5D" stroke="#3D2517" stroke-linejoin="round" stroke-width="1.4"/>
  <path d="m246 110-13.58 14.46-46.16-0.43 4.16-3.97 55.58-10.06z" fill="#31828A" stroke="#3D2517" stroke-linejoin="round" stroke-width="1.4"/>
  <path d="m224.9 124.8 7.13-0.13 14.24 13.48-34.88-4.29 13.51-9.06z" fill="#E7AE20" stroke="#3D2517" stroke-linejoin="round" stroke-width="1.4"/>
  <path d="m197.6 125.1 14.05 8.89-50.62-5.29-3.38-3.6h39.95z" fill="#31828A" stroke="#3D2517" stroke-linejoin="round" stroke-width="1.4"/>
  <path d="m238.6 137.9 7.81 11-37.16-8.09-5.4-5.67 34.75 2.76z" fill="#C12D25" stroke="#3D2517" stroke-linejoin="round" stroke-width="1.4"/>
  <path d="m237.2 147.7 8.85 26.26-29.04-11.67-6.87-4.29-0.18-2.13 27.24-8.17z" fill="#1D4767" stroke="#3D2517" stroke-linejoin="round" stroke-width="1.4"/>
  <path d="m196 170 49.5 12.06-17.71 10.04-26.27-16.33-9.19-5.67 3.67-0.1z" fill="#D25E2C" stroke="#3D2517" stroke-linejoin="round" stroke-width="1.4"/>
  <path d="m208 178.2 20.04 14.16 17.81 11.6h-24.72l-12.59-10.85-0.54-14.91z" fill="#E7AE20" stroke="#3D2517" stroke-linejoin="round" stroke-width="1.4"/>
  <path d="m186.6 173.4 33.09 30.52-15.77-0.05-13.96-11.71-12.09-12.33 8.73-6.43z" fill="#E8D6B6" stroke="#3D2517" stroke-linejoin="round" stroke-width="1.4"/>
  <path d="m180.4 180 14.79 15.01-29.25-15.82-0.92-2.24 5.47-0.09 9.91 3.14z" fill="#D86B31" stroke="#3D2517" stroke-linejoin="round" stroke-width="1.4"/>
  <path d="m164.7 179 17.04 24.94h-22.63l-1.22-2.27 6.81-22.67z" fill="#C12D25" stroke="#3D2517" stroke-linejoin="round" stroke-width="1.4"/>
  <path d="m146.4 176.1 11.87 26.16-20.68-12.16-4.14-22.88 12.95 8.88z" fill="#D15E2C" stroke="#3D2517" stroke-linejoin="round" stroke-width="1.4"/>
  <path d="m124.5 174 8.25-14.53 4.05 31.51-12.3 12.96v-29.94z" fill="#31828A" stroke="#3D2517" stroke-linejoin="round" stroke-width="1.4"/>
  <path d="m122.9 162.3-0.67 41.6h-5.26l3.06-37.87 2.87-3.73z" fill="#E8D6B6" stroke="#3D2517" stroke-linejoin="round" stroke-width="1.4"/>
  <path d="m117.3 161.2-7.13 29.72-5.54-14.58 12.67-15.14z" fill="#E7AE20" stroke="#3D2517" stroke-linejoin="round" stroke-width="1.4"/>
  <path d="m102.1 178.2-10.82 25.63-11.38 0.13 8.01-16.76 14.19-9z" fill="#D15E2C" stroke="#3D2517" stroke-linejoin="round" stroke-width="1.4"/>
  <path d="m64.11 201.6 34.9-43.94 2.6 17.89-39.47 28.32 1.97-2.27z" fill="#E7AE20" stroke="#3D2517" stroke-linejoin="round" stroke-width="1.4"/>
  <path d="m98.21 152.6-34.5 34.5-2.38-8.38 18.18-21.07 18.7-12.48v7.43z" fill="#31828A" stroke="#3D2517" stroke-linejoin="round" stroke-width="1.4"/>
  <path d="m60.97 177.9 2.55 7.86-24.24 18 2.38-24.11 8.81 4.75 10.5-6.5z" fill="#F3E6C2" stroke="#3D2517" stroke-linejoin="round" stroke-width="1.4"/>
  <path d="m4.01 184 16.69 8-16.69 11.9v-19.9z" fill="#FEFFFE" stroke="#3D2517" stroke-linejoin="round" stroke-width="1.4"/>
  <path d="m4.88 182.8 18.24-10.43-2.38 18.65-15.86-8.22z" fill="#E8D6B6" stroke="#3D2517" stroke-linejoin="round" stroke-width="1.4"/>
  <path d="m13.82 163.2 24.01-8.57 2.36 12.82-35.13 14.53 8.76-18.78z" fill="#D25E2C" stroke="#3D2517" stroke-linejoin="round" stroke-width="1.4"/>
  <path d="m5.97 148.6 21.45-3.38 8.64-10.06-25.45 4.45-4.64 8.99z" fill="#E7AE20" stroke="#3D2517" stroke-linejoin="round" stroke-width="1.4"/>
  <path d="m41.01 133.3 5.05 17.03-26.04 1.74 8.09-7.21 12.9-11.56z" fill="#1B3452" stroke="#3D2517" stroke-linejoin="round" stroke-width="1.4"/>
  <path d="m16.61 124.8h46.16l-5.15 7.65-52.41 6.52 11.4-14.17z" fill="#D25E2C" stroke="#3D2517" stroke-linejoin="round" stroke-width="1.4"/>
  <path d="m6.11 111.8 16.24 12.16 13.92-8.19-30.16-3.97z" fill="#C12D25" stroke="#3D2517" stroke-linejoin="round" stroke-width="1.4"/>
  <path d="m4.83 101.1 42.65 7.9 2.24 4.91-4.61 0.2-36.54-3.78-3.74-9.23z" fill="#31828A" stroke="#3D2517" stroke-linejoin="round" stroke-width="1.4"/>
  <path d="m29.11 85.1 11.18 5.19-0.21 4.87-28.67 6.6 17.7-16.66z" fill="#E8D6B6" stroke="#3D2517" stroke-linejoin="round" stroke-width="1.4"/>
  <path d="m4.01 73.96 24.6 11.03-17.8 15.32-6.8-26.35z" fill="#1C3C5D" stroke="#3D2517" stroke-linejoin="round" stroke-width="1.4"/>
  <path d="m4.28 67.13 16.71-9.8 28.11 19.83-5.09 8.63-39.73-18.66z" fill="#D25E2C" stroke="#3D2517" stroke-linejoin="round" stroke-width="1.4"/>
  <path d="m33.57 44.98 3.7 21.94-32.48-21.87 28.78-0.07z" fill="#E7AE20" stroke="#3D2517" stroke-linejoin="round" stroke-width="1.4"/>
  <path d="m34.15 45.25 24.77 26.22-5.21 6.56-15.4-10.76-4.16-22.02z" fill="#E7AE20" stroke="#3D2517" stroke-linejoin="round" stroke-width="1.4"/>
  <path d="m46.17 45.19 18.53-0.07 18.39 23.12-28.71-15.63-8.21-7.42z" fill="#E8D6B6" stroke="#3D2517" stroke-linejoin="round" stroke-width="1.4"/>
  <path d="m66.39 45.06 23.88-0.08-6.81 23.13-17.07-23.05z" fill="#1C3C5D" stroke="#3D2517" stroke-linejoin="round" stroke-width="1.4"/>
  <path d="m91.29 45.62 20.2 11.61-8.08 15.52-12.7-2.46 0.58-24.67z" fill="#D15E2C" stroke="#3D2517" stroke-linejoin="round" stroke-width="1.4"/>
  <path d="m112.2 57.02 3.16 24.9-11.43-9.03 8.27-15.87z" fill="#1B3452" stroke="#3D2517" stroke-linejoin="round" stroke-width="1.4"/>
  <path d="m124.3 44.98-0.16 28.93-5.93 12.03-5.68-28.4 11.77-12.56z" fill="#E7AE20" stroke="#3D2517" stroke-linejoin="round" stroke-width="1.4"/>
  <path d="m125.1 54.91 8.09-9.93h3.93l-6.38 44.14-5.64 2.32v-36.53z" fill="#C12D25" stroke="#3D2517" stroke-linejoin="round" stroke-width="1.4"/>
  <path d="m138.6 57.54 18.78-12.22-12.95 28.79-5.83-16.57z" fill="#31828A" stroke="#3D2517" stroke-linejoin="round" stroke-width="1.4"/>
  <path d="m158.2 45.48 6.03 10.86-6.97 9.58-5.9 2.17 6.84-22.61z" fill="#1C3C5D" stroke="#3D2517" stroke-linejoin="round" stroke-width="1.4"/>
  <path d="m183.1 45.25-24.36 21.01-13.23 8.58 4.28-9.98 26.55-19.24 6.76-0.37z" fill="#F3E6C2" stroke="#3D2517" stroke-linejoin="round" stroke-width="1.4"/>
  <path d="m210.7 45.25h34.31l-36.54 25.08 2.23-25.08z" fill="#C12D25" stroke="#3D2517" stroke-linejoin="round" stroke-width="1.4"/>
  <path d="m227.3 57.54-3.13 20.57-48.83 17.67-1.51-5.29 53.47-32.95z" fill="#1C3C5D" stroke="#3D2517" stroke-linejoin="round" stroke-width="1.4"/>
  <path d="m185.5 48.34-34.81 42.37-0.25 5.58 18.78-17.69 16.28-30.26z" fill="#C12D25" stroke="#3D2517" stroke-linejoin="round" stroke-width="1.4"/>
  <path d="m185.6 64.24 1.27 6.09-13.96 17.58 3.39 11.92-6.04-8.63 15.34-26.96z" fill="#E7AE20" stroke="#3D2517" stroke-linejoin="round" stroke-width="1.4"/>
  <path d="m218.8 82.26-46.95 26.07-2.38-3.9 6.68-3.32 42.65-18.85z" fill="#E7AE20" stroke="#3D2517" stroke-linejoin="round" stroke-width="1.4"/>
  <path d="m201.8 100.1 5.78 15.14-20.98 5.07-4.89 4.18-11.71-5.19 3.8-9.04 28-10.16z" fill="#D76A2A" stroke="#3D2517" stroke-linejoin="round" stroke-width="1.4"/>
  <path d="m169.2 91.9 7.08 8.61-24.24 11.6-5.7-6.42 22.86-13.79z" fill="#C12D25" stroke="#3D2517" stroke-linejoin="round" stroke-width="1.4"/>
  <path d="m154.9 125.1 22.62 21.02-50.53-21.02h27.91z" fill="#D25E2C" stroke="#3D2517" stroke-linejoin="round" stroke-width="1.4"/>
  <path d="m153 152 7.91 0.68 23.75 21.15-5.15 5.75-23.3-21.91-3.21-5.67z" fill="#31828A" stroke="#3D2517" stroke-linejoin="round" stroke-width="1.4"/>
  <path d="m181.6 148.3 4.28 23.99-21.94-19.01-1.34-2.26 19-2.72z" fill="#C12D25" stroke="#3D2517" stroke-linejoin="round" stroke-width="1.4"/>
  <path d="m6.56 203.8h32.06l2.39-23.16-37 23.16h2.55z" fill="#1C3C5D" stroke="#3D2517" stroke-linejoin="round" stroke-width="1.4"/>
  <path d="m24.41 189.4-0.97-17.46 47.3-23.68 3.1 7.93-49.43 33.21z" fill="#C12D25" stroke="#3D2517" stroke-linejoin="round" stroke-width="1.4"/>
  <path d="m47.98 149.8 29.04-9.85 6.3-9.22-16.83-5.98-18.51 25.05z" fill="#E7AE20" stroke="#3D2517" stroke-linejoin="round" stroke-width="1.4"/>
  <path d="m40.8 100 18.35 6.96-5.83 3.65-8.25-1.4-4.27-9.21z" fill="#31828A" stroke="#3D2517" stroke-linejoin="round" stroke-width="1.4"/>
  <path d="m40.08 90.22 20.25-16.26 8.39 25.83-28.64-10.72v1.15z" fill="#E8D6B6" stroke="#3D2517" stroke-linejoin="round" stroke-width="1.4"/>
  <path d="m54.91 54.91 37.78 41.51-23.94 3.24-13.84-44.75z" fill="#C12D25" stroke="#3D2517" stroke-linejoin="round" stroke-width="1.4"/>
  <path d="m83.76 70.33 22.36 30.72-6-4.1-16.36-26.62z" fill="#D86B31" stroke="#3D2517" stroke-linejoin="round" stroke-width="1.4"/>
  <path d="m104 74.09 12.94 9.87-5.29 12.06-7.65-21.93z" fill="#F3E6C2" stroke="#3D2517" stroke-linejoin="round" stroke-width="1.4"/>
  <path d="m143.7 76.91 7.2 18.63-25.85 25.55v-22.98l18.65-21.2z" fill="#E7AE20" stroke="#3D2517" stroke-linejoin="round" stroke-width="1.4"/>
  <path d="m146 104.6 6.1 7.5-23.95 10.49-0.24-1.84 18.09-16.15z" fill="#D15E2C" stroke="#3D2517" stroke-linejoin="round" stroke-width="1.4"/>
  <path d="m126.6 126.4 17.71 18.77-8.31 7.64-9.4-26.41z" fill="#E7AE20" stroke="#3D2517" stroke-linejoin="round" stroke-width="1.4"/>
  <path d="m138.9 150.8 5.04-3.82 20.7 29.9-18.57-1.78-13.34-10.57 6.17-13.73z" fill="#E8D6B6" stroke="#3D2517" stroke-linejoin="round" stroke-width="1.4"/>
  <path d="m124.5 125.1-0.4 25.52-20.71 24.99-6.34-20.45 27.45-30.06z" fill="#E8D6B6" stroke="#3D2517" stroke-linejoin="round" stroke-width="1.4"/>
  <path d="m122.9 125.3-18.96 18.85-8.22-8.45 27.18-10.4z" fill="#C12D25" stroke="#3D2517" stroke-linejoin="round" stroke-width="1.4"/>
  <path d="m70.91 125.1h48.99l-24.47 10.33-24.52-10.33z" fill="#F3E6C2" stroke="#3D2517" stroke-linejoin="round" stroke-width="1.4"/>
  <path d="m72.21 146.8 22.5-11.1 6.71 7.5-21.75 14.49-7.46-10.89z" fill="#E8D6B6" stroke="#3D2517" stroke-linejoin="round" stroke-width="1.4"/>
  <path d="m70.91 101.8 26.55-4.13 24.81 24.9-51.36-20.77z" fill="#F3E6C2" stroke="#3D2517" stroke-linejoin="round" stroke-width="1.4"/>
  <path d="m112 98.11 10.95 22.51-1.23 0.47-16.69-17.82 6.97-5.16z" fill="#E7AE20" stroke="#3D2517" stroke-linejoin="round" stroke-width="1.4"/>
  <path d="m154.6 113.8 11.43 4.68 11.83-5.61 0.3 11.55-23.56-10.62z" fill="#F3E6C2" stroke="#3D2517" stroke-linejoin="round" stroke-width="1.4"/>
  <path d="m127.6 125.1 54.12 24.58-28.43 2.96-25.69-27.54z" fill="#F3E6C2" stroke="#3D2517" stroke-linejoin="round" stroke-width="1.4"/>
  <path d="m163.7 129.4 38.05 4.09 2.04 6.14-13.74-2.73-1.16 5.76 20.04 11.94v5.62l-26.04-11-19.19-19.82z" fill="#F3E6C2" stroke="#3D2517" stroke-linejoin="round" stroke-width="1.4"/>
</svg>