<svg xmlns="http://www.w3.org/2000/svg" width="200" height="200" fill="none" viewBox="0 0 200 200">
<!-- SVG created with Arrow, by QuiverAI (https://quiver.ai) -->
  <path d="m154.4 58.09 10.27-6.46 13.93 8.91-1.25 17.24-8.21 7.24-9.44-0.22-8.21-12.42 2.91-14.29z" fill="#279994" stroke="#12182B" stroke-linecap="round" stroke-linejoin="round" stroke-width="1.8"/>
  <path d="m164.9 52.14 1.88 13.11 11.69-4.45-13.57-8.66z" fill="#C19231" stroke="#12182B" stroke-linecap="round" stroke-linejoin="round" stroke-width="1.8"/>
  <path d="m155.5 58.31 11.3 6.94-2.12-13.62-9.18 6.68z" fill="#F26A22" stroke="#12182B" stroke-linecap="round" stroke-linejoin="round" stroke-width="1.8"/>
  <path d="m169.1 191.3 1.06-11.56 9.68-0.49 0.37 11.64-11.11 0.41z" fill="#B38A30" stroke="#12182B" stroke-linecap="round" stroke-linejoin="round" stroke-width="1.8"/>
  <path d="m138 192 11.76-12.13 6.5 0.42 0.18 11.45-18.44 0.26z" fill="#F26A22" stroke="#12182B" stroke-linecap="round" stroke-linejoin="round" stroke-width="1.8"/>
  <path d="m181.6 85.02 16.29 44.27-6.27 8.34-10.09-29.5-0.59 71.64-11.2 0.39-4.85-30.12-7.74 30.98-9.17-1.15 0.75-70.42-9.36 25.27-9.45-1.62 21.48-47.36 30.2-0.72z" fill="#213F6B" stroke="#12182B" stroke-linecap="round" stroke-linejoin="round" stroke-width="1.8"/>
  <path d="m149.8 86.41 14.84 24.86 16.81-26.14" stroke="#12182B" stroke-linecap="round" stroke-linejoin="round" stroke-width="1.8"/>
  <path d="m162.8 117.1 17.18 21.63-31.16-0.14 15.77-27.33" stroke="#12182B" stroke-linecap="round" stroke-linejoin="round" stroke-width="1.8"/>
  <path d="m180 138.7-9.82 41.07" stroke="#12182B" stroke-linecap="round" stroke-linejoin="round" stroke-width="1.8"/>
  <path d="m166.1 139.2-17.74 20.96" stroke="#12182B" stroke-linecap="round" stroke-linejoin="round" stroke-width="1.8"/>
  <path d="m194.8 121.3-5.44 7.7 2.02 8.13 6.48-7.88-3.06-7.95z" fill="#F26A22" stroke="#12182B" stroke-linecap="round" stroke-linejoin="round" stroke-width="1.8"/>
  <path d="m130 132.9 5.28 10.35 3.17-8.63-5.61-5.2-2.84 3.48z" fill="#F26A22" stroke="#12182B" stroke-linecap="round" stroke-linejoin="round" stroke-width="1.8"/>
  <path d="m151.9 85.53-22.95-12.35 1.33 9.73 16.84 9.84 4.78-7.22z" fill="#279994" stroke="#12182B" stroke-linecap="round" stroke-linejoin="round" stroke-width="1.8"/>
  <path d="m138.6 80.1-2.97 6.25 10.37 6.58 2.66-8.13-10.06-4.7z" fill="#279994" stroke="#12182B" stroke-linecap="round" stroke-linejoin="round" stroke-width="1.8"/>
  <path d="m116.7 39.29-33.28-0.27-13.41 39.88 3.93 13.86 10.7-29.77-0.36 60.94-6.82 10.17 15.5-0.39 6.79-38.1 6.85 37.99 15.12 0.43-7-10.17 0.85-84.37 1.13-0.2z" fill="#F26A22" stroke="#12182B" stroke-linecap="round" stroke-linejoin="round" stroke-width="1.8"/>
  <path d="m83.54 39.27 1.31 21.89-10.88 31.6-3.93-14.85 13.5-38.64z" fill="#D43B27" stroke="#12182B" stroke-linecap="round" stroke-linejoin="round" stroke-width="1.8"/>
  <path d="m92.45 8.23 14.84-0.22 3.41 5.9 1.54 12.87-13.29 11.81-11.42-11.98 1.25-12.86 3.67-5.52z" fill="#C19231" stroke="#12182B" stroke-linecap="round" stroke-linejoin="round" stroke-width="1.8"/>
  <path d="m93.52 8.4 18.56 18.21-1.38-12.7-3.56-5.82-13.62 0.31z" fill="#D43B27" stroke="#12182B" stroke-linecap="round" stroke-linejoin="round" stroke-width="1.8"/>
  <path d="m116.6 39.43-9.25 15.19h-15.04l-8.71-15.43 33 0.24z" fill="#F26A22" stroke="#12182B" stroke-linecap="round" stroke-linejoin="round" stroke-width="1.8"/>
  <path d="m91.75 54.72 0.28 27.05-6.96 9.08-0.05-8.73-0.42-40.05 7.15 12.65z" fill="#C19231" stroke="#12182B" stroke-linecap="round" stroke-linejoin="round" stroke-width="1.8"/>
  <path d="m107 54.72-0.82 27.49 8.95 9.38 0.08-29.94 1.17-21.83-9.38 14.9z" fill="#C19231" stroke="#12182B" stroke-linecap="round" stroke-linejoin="round" stroke-width="1.8"/>
  <path d="m92.68 55.18 14-0.1-13.17 26.83-1.37 0.07 0.54-26.8z" fill="#279994" stroke="#12182B" stroke-linecap="round" stroke-linejoin="round" stroke-width="1.8"/>
  <path d="m93.39 81.81 12.72 0.2 8.38 9.65-14.84 3.75-14.74-3 8.48-10.6z" fill="#D43B27" stroke="#12182B" stroke-linecap="round" stroke-linejoin="round" stroke-width="1.8"/>
  <path d="m99.86 95.5 15.24 19.56 0.13-22.95-15.37 3.39z" fill="#C19231" stroke="#12182B" stroke-linecap="round" stroke-linejoin="round" stroke-width="1.8"/>
  <path d="m84.86 93.03 14.15 2.44-14.23 19.56 0.08-22z" fill="#F26A22" stroke="#12182B" stroke-linecap="round" stroke-linejoin="round" stroke-width="1.8"/>
  <path d="m116.7 39.31 13.22 39.88-3.98 13.22-10.82-29.97 1.58-23.13z" fill="#C19231" stroke="#12182B" stroke-linecap="round" stroke-linejoin="round" stroke-width="1.8"/>
  <path d="m130.4 74.48 8.23 5.25-3.12 6.01-6.39-3.63 1.28-7.63z" fill="#F26A22" stroke="#12182B" stroke-linecap="round" stroke-linejoin="round" stroke-width="1.8"/>
  <path d="m60.05 83.71-8.14 5.1 3.82 7.58 9.23-6.4-4.91-6.28z" fill="#C19231" stroke="#12182B" stroke-linecap="round" stroke-linejoin="round" stroke-width="1.8"/>
  <path d="m68.02 77.32 3.85 2.7-6.3 10.2-5.03-6.26 7.48-6.64z" fill="#C19231" stroke="#12182B" stroke-linecap="round" stroke-linejoin="round" stroke-width="1.8"/>
  <path d="m18.42 84.72-16.17 44.44 5.79 8.32 10.67-30.87-0.86 73 12.16 0.42 5.74-29.91 6.28 30.39 9.25-0.84-0.57-71.21 14.29 30.61 5.04-6.98-19.13-46.13-32.49-1.24z" fill="#F2E8CA" stroke="#12182B" stroke-linecap="round" stroke-linejoin="round" stroke-width="1.8"/>
  <path d="m18.92 85.63 15.04 22.05 15.51-21.66-30.55-0.39z" fill="#C19231" stroke="#12182B" stroke-linecap="round" stroke-linejoin="round" stroke-width="1.8"/>
  <path d="m34.95 51.64-14.16 9.06 1.24 16.76 15.46 8.07 10.56-13.44-3.07-14.37-10.03-6.08z" fill="#F2E8CA" stroke="#12182B" stroke-linecap="round" stroke-linejoin="round" stroke-width="1.8"/>
  <path d="m35.31 51.81-2.51 13.3-11.77-3.81 14.28-9.49z" fill="#DABE98" stroke="#12182B" stroke-linecap="round" stroke-linejoin="round" stroke-width="1.8"/>
  <path d="m44.71 57.72-11.9 7.18 1.15-13.27 10.75 6.09z" fill="#213F6B" stroke="#12182B" stroke-linecap="round" stroke-linejoin="round" stroke-width="1.8"/>
  <path d="m19.26 191 1.43-11.77 7.92 0.21 0.22 11.63-9.57-0.07z" fill="#213F6B" stroke="#12182B" stroke-linecap="round" stroke-linejoin="round" stroke-width="1.8"/>
  <path d="m42.93 191.7 0.15-10.42 7.1-1.45 11.13 12.13-18.38-0.26z" fill="#C19231" stroke="#12182B" stroke-linecap="round" stroke-linejoin="round" stroke-width="1.8"/>
  <path d="m36.33 116.2-17.19 25.38 10.75 38.37 5.86-33.74 0.58-30.01z" fill="#C19231" stroke="#12182B" stroke-linecap="round" stroke-linejoin="round" stroke-width="1.8"/>
  <path d="m36.74 116.2 14.35 28.04-8.95 36.39-5.4-34.28v-30.15z" fill="#DABE98" stroke="#12182B" stroke-linecap="round" stroke-linejoin="round" stroke-width="1.8"/>
  <path d="m34.94 86.65 6.67 10.53-7.77 10.67 1.1-21.2z" fill="#213F6B" stroke="#12182B" stroke-linecap="round" stroke-linejoin="round" stroke-width="1.8"/>
  <path d="m4.32 121.6 6.14 7.1-2.47 8.71-5.74-8.45 2.07-7.36z" fill="#213F6B" stroke="#12182B" stroke-linecap="round" stroke-linejoin="round" stroke-width="1.8"/>
  <path d="m69.99 135.2 16.96 11.34-3.23 8.26-18.51-12.63 4.78-6.97z" fill="#F26A22" stroke="#12182B" stroke-linecap="round" stroke-linejoin="round" stroke-width="1.8"/>
  <path d="m138.7 135.2 0.15 10.5-17.36 16.84-3.22-8.42 11.75-10.5 4.97-4.69 3.71-3.73z" fill="#279994" stroke="#12182B" stroke-linecap="round" stroke-linejoin="round" stroke-width="1.8"/>
  <path d="m128.8 144.9 4.6 5.91-12.8 11.45-2.82-8.18 11.02-9.18z" fill="#C19231" stroke="#12182B" stroke-linecap="round" stroke-linejoin="round" stroke-width="1.8"/>
  <path d="m87.12 147.3 31.65 6.84 2.29 8.18-37.44-7.6 3.5-7.42z" fill="#279994" stroke="#12182B" stroke-linecap="round" stroke-linejoin="round" stroke-width="1.8"/>
  <path d="m93.61 149.1-2.17 7.24-7.16-1.53 2.53-7.3 6.8 1.59z" fill="#C19231" stroke="#12182B" stroke-linecap="round" stroke-linejoin="round" stroke-width="1.8"/>
  <path d="m158.7 86.41 13.13-0.59-6.86 13.6-6.27-13.01z" fill="#C19231" stroke="#12182B" stroke-linecap="round" stroke-linejoin="round" stroke-width="1.8"/>
  <path d="m68.61 130.1-7.36 3.65 4.06 8.47 4.58-8.11-1.28-4.01z" fill="#213F6B" stroke="#12182B" stroke-linecap="round" stroke-linejoin="round" stroke-width="1.8"/>
</svg>