<svg xmlns="http://www.w3.org/2000/svg" width="232" height="200" viewBox="0 0 232 200">
<!-- SVG created with Arrow, by QuiverAI (https://quiver.ai) -->
  <path d="m228.9 54.34-2.91-4.17-14.07-19.86-9.99-9.89 2.33-12.6-6.6 8.18-0.18-10.98-10.76 12.96-22.35 2.8-41.24 43.09-7.74 2.78-25.47-3.39-22.64-5.3-28.48 14.14-14.47 3.59-13.49 18.09-7.15 42.47 14.49-12.23 8.44-15.24 2.25-14.31 4.92-9.74-1.21 13.8 19.51 26.07-9.86 21.3 30.73 28.22-3.96 6.94 11.92 11.04 1.84-11.48-3.1-13.4-15.71-17.03-3.81-3.84 12.24-14.27 0.66 2.8-4.04 15.54 26.81 30.14 2 0.12-0.22 9.78 13.84 3.55-3.31-9.85-23.93-30.98 11-31.05 8.06 3.88 25.28 4.76 27.67 26.36-20.57 8.98-2.52-0.59-5.46-4.11-12.21 9.55 22.48 3.89 26.01-10.65 2.95-8-12.08-25.2 14.4-2.89 22.02 7.51 1.18 4.36-11.58 18.73-1 3.81-8.9 0.22-2.35 13.16 8.35-3.19 11.81-8.41 13.17-26.91-1.95-8.12-23.78-13.06 6.77-13.83-4-17.29 9.42-29.63 9.01 1.65 15.48 6.51 0.5 3.87 10.1-1.03 3.47-2.15 1.98-9.97z" fill="#000" stroke="#000" stroke-linecap="round" stroke-linejoin="round" stroke-width="2"/>
  <path d="m164.8 21.61 4.29 5 16.64-8.58-20.93 3.58z" fill="#1E3958" stroke="#000" stroke-linecap="round" stroke-linejoin="round" stroke-width="1.2"/>
  <path d="m154.7 31.03 11.21 0.13 3.23-4.55-4.41-4.41-10.03 8.83z" fill="#CC621E" stroke="#000" stroke-linecap="round" stroke-linejoin="round" stroke-width="1.2"/>
  <path d="m148.7 37.39 3.17-4.63 14.07-1.53-25.24 25.73 8-19.57z" fill="#35858A" stroke="#000" stroke-linecap="round" stroke-linejoin="round" stroke-width="1.2"/>
  <path d="m124.2 63.29 22.01-21.6-5.76 15.54-16.25 6.06z" fill="#992C20" stroke="#000" stroke-linecap="round" stroke-linejoin="round" stroke-width="1.2"/>
  <path d="m163.7 61.13 6.6-33.88 15.99-9.42 1.14 8.69-5.75 12.5-17.98 22.11z" fill="#F0E2C4" stroke="#000" stroke-linecap="round" stroke-linejoin="round" stroke-width="1.2"/>
  <path d="m190.1 27.53 6.61-9.44 0.36-10.05-6.97 9.32v10.17z" fill="#A73124" stroke="#000" stroke-linecap="round" stroke-linejoin="round" stroke-width="1.2"/>
  <path d="m198.7 20 2.56-1.26 2.01-9.96-5.15 6.94 0.58 4.28z" fill="#992C20" stroke="#000" stroke-linecap="round" stroke-linejoin="round" stroke-width="1.2"/>
  <path d="m203.1 22.19 7.78 7.97 15.88 24.29-1.84-1.47-20.1-21.13-1.72-9.66z" fill="#FEF9EB" stroke="#000" stroke-linecap="round" stroke-linejoin="round" stroke-width="1.2"/>
  <path d="m222 52.93 3.24-1.62 3.24 3.4-2.78 9.1-5.49 1.62-6.15-0.74-1.02-4.6-10.34-7.98 3.32-5.63-0.12-11.92-4.79-1.45 3.24-2.23 5.25 1.54 12.4 20.51z" fill="#B95223" stroke="#000" stroke-linecap="round" stroke-linejoin="round" stroke-width="1.2"/>
  <path d="m222 52.93 4.18 3.12-0.48 5.14-4.41-4.08 0.71-4.18z" fill="#000" stroke="#000" stroke-linecap="round" stroke-linejoin="round" stroke-width="1.2"/>
  <path d="m204.7 30.79 1.4 4.75-15.99-7.81-8.34 10.76 6.02 15.82 10.65 1.38 7.63-10.49-7.33-11.48 5.96-2.93z" fill="#B4422F" stroke="#000" stroke-linecap="round" stroke-linejoin="round" stroke-width="1.2"/>
  <path d="m180.8 40.84-24.91 29.66 13.25 23.59 1.43-0.13 16.74-39.42-6.51-13.7z" fill="#35858A" stroke="#000" stroke-linecap="round" stroke-linejoin="round" stroke-width="1.2"/>
  <path d="m140.5 57.23 13.51 13.18 6.81-8 8.35-34.35-28.67 29.17z" fill="#CC621E" stroke="#000" stroke-linecap="round" stroke-linejoin="round" stroke-width="1.2"/>
  <path d="m115.5 67.29 24.57-8.75-0.91 30.07-11.54 16.47-12.12-37.79z" fill="#1E3958" stroke="#000" stroke-linecap="round" stroke-linejoin="round" stroke-width="1.2"/>
  <path d="m139.3 88.49 14.8-17.32 14.8 25.11-0.6 10.03-29-17.82z" fill="#F0E2C4" stroke="#000" stroke-linecap="round" stroke-linejoin="round" stroke-width="1.2"/>
  <path d="m170.3 105.7 8.32-20.51 3.23 16.54-11.55 3.97z" fill="#D9B689" stroke="#000" stroke-linecap="round" stroke-linejoin="round" stroke-width="1.2"/>
  <path d="m168.7 106.6 12.58-4.55-6.25 13.71-6.33 4.77v-13.93z" fill="#CC621E" stroke="#000" stroke-linecap="round" stroke-linejoin="round" stroke-width="1.2"/>
  <path d="m147.3 93.96 20.57 12.43-20.41 11.48-0.16-23.91z" fill="#35858A" stroke="#000" stroke-linecap="round" stroke-linejoin="round" stroke-width="1.2"/>
  <path d="m139.3 89.08-11.9 16.34 1.4 23.91 18.6-11.77v-23.92l-8.1-4.56z" fill="#B9422F" stroke="#000" stroke-linecap="round" stroke-linejoin="round" stroke-width="1.2"/>
  <path d="m130.3 129.1 16.23-9.3-1.42 9.3h-14.81z" fill="#D9B689" stroke="#000" stroke-linecap="round" stroke-linejoin="round" stroke-width="1.2"/>
  <path d="m128.7 130.1 16.23-0.63 12.85 27.92-29.08-27.29z" fill="#CC621E" stroke="#000" stroke-linecap="round" stroke-linejoin="round" stroke-width="1.2"/>
  <path d="m147.1 119.7 20.17-12-0.23 12.39-13.17 9.3-6.77-9.69z" fill="#1E3958" stroke="#000" stroke-linecap="round" stroke-linejoin="round" stroke-width="1.2"/>
  <path d="m146.2 128.1 4.63-7.75 15.17 34.85-8.2 2.19-11.6-29.29z" fill="#F0E2C4" stroke="#000" stroke-linecap="round" stroke-linejoin="round" stroke-width="1.2"/>
  <path d="m170.4 118.8 4.53-2.15 24.79 12.98-8.35 5.42-20.97-16.25z" fill="#A73124" stroke="#000" stroke-linecap="round" stroke-linejoin="round" stroke-width="1.2"/>
  <path d="m155 130.5 14.16-9.99 22.5 14.21-36.66-4.22z" fill="#000" stroke="#000" stroke-linecap="round" stroke-linejoin="round" stroke-width="1.2"/>
  <path d="m192.8 137.2 7.32-7.52 1.97 7.52-13.39 25.61 4.1-25.61z" fill="#35858A" stroke="#000" stroke-linecap="round" stroke-linejoin="round" stroke-width="1.2"/>
  <path d="m181.4 160.4 6.08 2.58-10.85 9.21 0.58-9.42 4.19-2.37z" fill="#CC621E" stroke="#000" stroke-linecap="round" stroke-linejoin="round" stroke-width="1.2"/>
  <path d="m171.4 162.9 5.4-0.58 0.98 8.75-8.86 4.62 2.48-12.79z" fill="#1E3958" stroke="#000" stroke-linecap="round" stroke-linejoin="round" stroke-width="1.2"/>
  <path d="m181.4 158.1 10.92-18.05-3.95 22.06-7.23-0.71 0.26-3.3z" fill="#992C20" stroke="#000" stroke-linecap="round" stroke-linejoin="round" stroke-width="1.2"/>
  <path d="m136.4 166.2 20.31-8.48-16.71 14.92-3 0.81-2.46-6.36 1.86-0.89z" fill="#35858A" stroke="#000" stroke-linecap="round" stroke-linejoin="round" stroke-width="1.2"/>
  <path d="m156.7 158.5 5.25-1.85 1.71 7.33-22.52 9.55 15.56-15.03z" fill="#992C20" stroke="#000" stroke-linecap="round" stroke-linejoin="round" stroke-width="1.2"/>
  <path d="m116.5 170.9 11.14-9.15 4.28 2.89-5.98 8.34-9.44-2.08z" fill="#1E3958" stroke="#000" stroke-linecap="round" stroke-linejoin="round" stroke-width="1.2"/>
  <path d="m131.1 166.3 2.66 0.54 3.39 6.61-11.28-1.07 5.23-6.08z" fill="#CC621E" stroke="#000" stroke-linecap="round" stroke-linejoin="round" stroke-width="1.2"/>
  <path d="m92.91 96.59 22.52-28.78 11.99 37.03-34.51-8.25z" fill="#CC621E" stroke="#000" stroke-linecap="round" stroke-linejoin="round" stroke-width="1.2"/>
  <path d="m90.42 64.25 24.59 3.04-22.1 28.44-2.49-31.48z" fill="#D9B689" stroke="#000" stroke-linecap="round" stroke-linejoin="round" stroke-width="1.2"/>
  <path d="m67.95 58.78 21.44 5.13-14.91 16.35-6.53-21.48z" fill="#35858A" stroke="#000" stroke-linecap="round" stroke-linejoin="round" stroke-width="1.2"/>
  <path d="m39.84 71.89 27.33-13.08 5.98 22.2-39.42 17.29 6.11-26.41z" fill="#B9422F" stroke="#000" stroke-linecap="round" stroke-linejoin="round" stroke-width="1.2"/>
  <path d="m24.29 76.57 14.23-3.77-2.11 5.76-23.35 15.23 11.23-17.22z" fill="#35858A" stroke="#000" stroke-linecap="round" stroke-linejoin="round" stroke-width="1.2"/>
  <path d="m11.29 93.82 24.72-15.54-31.64 56.32 6.92-40.78z" fill="#CC621E" stroke="#000" stroke-linecap="round" stroke-linejoin="round" stroke-width="1.2"/>
  <path d="m27.82 96.52-1.72 12.49-8.44 14.9-12.54 11.19 22.7-38.58z" fill="#1E3958" stroke="#000" stroke-linecap="round" stroke-linejoin="round" stroke-width="1.2"/>
  <path d="m33.93 98.69 25.45 8.69 20.57 6.92-26.27 9.76-19.75-25.37z" fill="#35858A" stroke="#000" stroke-linecap="round" stroke-linejoin="round" stroke-width="1.2"/>
  <path d="m73.89 81.19 6.9 32.62-21.29-6.43 14.39-26.19z" fill="#CC621E" stroke="#000" stroke-linecap="round" stroke-linejoin="round" stroke-width="1.2"/>
  <path d="m74.62 81.09 17.55 14.82-9.94 18.56-7.61-33.38z" fill="#1E3958" stroke="#000" stroke-linecap="round" stroke-linejoin="round" stroke-width="1.2"/>
  <path d="m89.91 96.89 2.6-0.58 10.28 27.45-20.12-8.85 7.24-18.02z" fill="#B9422F" stroke="#000" stroke-linecap="round" stroke-linejoin="round" stroke-width="1.2"/>
  <path d="m81.52 114.8 13.07 5.73-11.27 31.4-13.4-1.49 11.6-35.64z" fill="#1E3958" stroke="#000" stroke-linecap="round" stroke-linejoin="round" stroke-width="1.2"/>
  <path d="m53.81 123.9 25.57-8.34-21.45 30.04-4.12-21.7z" fill="#F0E2C4" stroke="#000" stroke-linecap="round" stroke-linejoin="round" stroke-width="1.2"/>
  <path d="m43.31 145.8 13.76 0.75-3.48-20.54-10.28 19.79z" fill="#992C20" stroke="#000" stroke-linecap="round" stroke-linejoin="round" stroke-width="1.2"/>
  <path d="m44.48 147.1 13.04 0.15 12.44 22.34-25.48-22.49z" fill="#992C20" stroke="#000" stroke-linecap="round" stroke-linejoin="round" stroke-width="1.2"/>
  <path d="m60.1 150 17.7 17.03-7.09 3.2-10.61-20.23z" fill="#D9B689" stroke="#000" stroke-linecap="round" stroke-linejoin="round" stroke-width="1.2"/>
  <path d="m78.22 167.4 3.84 12.67-10.46-3.36 6.62-9.31z" fill="#F0E2C4" stroke="#000" stroke-linecap="round" stroke-linejoin="round" stroke-width="1.2"/>
  <path d="m69.3 180.7 12.21 10.76 1.21-10.63-5.46-4.37-7.96 4.24z" fill="#1E3958" stroke="#000" stroke-linecap="round" stroke-linejoin="round" stroke-width="1.2"/>
  <path d="m70.09 150.7 12.58 2.15 14.56 25.85-1.55 0.5-25.59-28.5z" fill="#992C20" stroke="#000" stroke-linecap="round" stroke-linejoin="round" stroke-width="1.2"/>
  <path d="m85.08 157.2 14.58 17.72-2.17 4.59-12.41-22.31z" fill="#35858A" stroke="#000" stroke-linecap="round" stroke-linejoin="round" stroke-width="1.2"/>
  <path d="m97.91 181.1 8.62 1.85 1.7 9.55-10.56-3.24 0.24-8.16z" fill="#992C20" stroke="#000" stroke-linecap="round" stroke-linejoin="round" stroke-width="1.2"/>
  <path d="m98.04 180.5 1.97-4.76 6.15 7.2-8.12-0.8v-1.64z" fill="#D9B689" stroke="#000" stroke-linecap="round" stroke-linejoin="round" stroke-width="1.2"/>
  <path d="m73.8 129.1-1.31 1.99 1.31 3.7-3.71 15.23 19.82-21.91 2.6-6.94-10.09-6.06-8.62 13.99z" fill="#1E3958" stroke="#000" stroke-linecap="round" stroke-linejoin="round" stroke-width="1.2"/>
  <path d="m74.62 80.51 16.96 15.37-1.47-31.22-15.49 15.85z" fill="#F0E2C4" stroke="#000" stroke-linecap="round" stroke-linejoin="round" stroke-width="1.2"/>
</svg>