<svg xmlns="http://www.w3.org/2000/svg" width="250" height="250" viewBox="0 0 250 250">
<!-- SVG created with Arrow, by QuiverAI (https://quiver.ai) -->
  <path d="m124.7 7-16.56 36.95-3.63 0.76-29.41-29.43 0.31 43.08-1.73 1.1-38.64-14.07 16.65 36.7-39.88 1.91 29.86 26.7-36.69 13.86 36.63 14.46-29.57 27.53 40.74 1.77-17.33 36.22 38.67-14.54 5.72 5.44 4.25 0.85 0.18 41.5 25.74-29.21 14.53 36.42 14.73-37.21 27.18 29.94 1.02-42.13 8.62-6.11 37.63 13.8-15.83-35.13 40.05-2.78-28.74-26.27 36.43-14.4-36.99-14.26 29.21-27.4-40.68-1.34 15.37-36.9-38.9 13.42 0.17-42.89-29.18 28.44-3.69-0.62-16.24-38.16z" fill="#000"/>
  <path d="m124.4 16.08-10.38 26.58 20.56-0.15-10.18-26.43z" fill="#EAB619"/>
  <path d="m80.72 26.42 19.84 19.57-20.14 9.75 0.3-29.32z" fill="#BF4708"/>
  <path d="m169.4 26.74-0.25 28.58-20.41-9.68 20.66-18.9z" fill="#BF4708"/>
  <path d="m44.57 52.97 25.19 9.74-13.85 16.02-11.34-25.76z" fill="#EAB619"/>
  <path d="m204.7 51.9-11.86 26.12-13.96-16.63 25.82-9.49z" fill="#EAB619"/>
  <path d="m21.98 87.42 28.82-1.43-6.83 19.73-21.99-18.3z" fill="#BF4708"/>
  <path d="m197.2 86.11 28.58 1.22-20.3 18.08-8.28-19.3z" fill="#BF4708"/>
  <path d="m15.09 124.6 26.44-9.29 0.59 19.28-27.03-9.99z" fill="#EAB619"/>
  <path d="m207.3 115 25.65 9.48-25.77 10.3 0.12-19.78z" fill="#EAB619"/>
  <path d="m22.94 162.6 20.77-18.58 8.45 19.29-29.22-0.71z" fill="#BF4708"/>
  <path d="m205.3 142.7 21.36 19.07-28.77 1.3 7.41-20.37z" fill="#BF4708"/>
  <path d="m45.16 196.4 10.94-25.58 14.8 16.52-25.74 9.06z" fill="#EAB619"/>
  <path d="m193.6 171.1 11.3 24.43-24.83-8.74 13.53-15.69z" fill="#EAB619"/>
  <path d="m87.11 198.4 19.08 6.51-18.07 20.71-1.01-27.22z" fill="#BF4708"/>
  <path d="m163 197.8-0.43 27.97-19.84-20.92 20.27-7.05z" fill="#BF4708"/>
  <path d="m124.4 232.5-10.3-25.59 19.97-0.59-9.67 26.18z" fill="#EAB619"/>
  <path d="m124.5 41.8c-40.47 0-74.52 31.9-82.32 71.36l-0.48 13.94c0 42.07 36.08 78.11 82.94 78.11 44.56 0 81.2-36.42 81.13-81.7-0.07-44.75-35.29-81.71-81.27-81.71z" fill="#000"/>
  <path d="m122 46.12 0.14 8.3-4.63 0.29-0.73-4.14-8.47 1.37-0.55 5.09-6.9 1.38-1.09-4.01-7.02 2.99 0.36 3.59-4.93 3.1-4.32-2.01-5.9 5.72 1.9 3.14-2.08 2.41-7.97-6.48c14.19-14.63 30.49-21.03 52.19-20.74z" fill="#C65205"/>
  <path d="m126.3 46.28v8.1l6.48 0.44 0.46-4.92 10.13 1.18 0.25 5.54 6.33 1.18 0.8-3.86 7.02 2.96-0.69 6.01 5.9 2.8 2.95-3.63 7.31 5.21-3.53 5.42 2.23 2.23 7.17-6.03c10.66 8.07 21.5 26.68 22.3 52.45h-8.39l-1.07-11.3 5.9-0.36-1.85-9.22-5.13 1.37-2.71-6.02 4.33-0.93-3.75-6.49-5.73 1.69-3.02-4.92 5.49-4.32-5.92-7.13-5.39 5.08-12.59-9.96-10.41-4.79-9.31-3.26-14.96-1.59-0.43 62.41h62.28c0-31.6-26.68-61.54-62.45-62.14v-13.2z" fill="#EAB619"/>
  <path d="m121.7 59.26c-36.44 0-61.64 31.72-61.86 62.55l61.69-0.09 0.17-62.46z" fill="#BF4708"/>
  <path d="m47.36 126.9 7.83-0.09-0.36 5.36-4.63 0.63 1.68 8.62 5.15 0.19 0.88 4.85-3.54 2.04 2.92 8.01 5.55-0.67 2.5 5.37-3.67 3.94 6.15 10.58 5.55-4.98 2.81 2.35-5.97 5.89c-9.75-9.75-23.19-24.8-22.85-52.09z" fill="#C65205"/>
  <path d="m60.36 126.8h61.96l-0.25 62.37c-37.09-1.76-61.19-31.56-61.71-62.37z" fill="#EAB619"/>
  <path d="m126.5 126.8 62.84 0.09c-1 28.78-25.18 61.09-62.64 62.01l-0.2-62.1z" fill="#BF4708"/>
  <path d="m127 194.8v5.94c16.8-0.2 32.22-5.52 47.87-20.48l-4.61-5.38-1.81 1.1 1.71 4.06-6.25 5.75-4.93-4-1.86 1.55 0.84 4.8-9.51 3.93-1.59-1.97 0.23-0.06-0.52-0.04-0.32-0.4-7.55 1.44-1.43 5.97-8.12 0.92-2.15-3.13z" fill="#BF4708"/>
  <path d="m115.4 198.2 6.36-0.28-0.11-3.44 0.11-1.37-6.74-0.44-0.69 5.07-7.93-1.49-0.69-5.15-5.93-1.34-1.27 4.01-7.5-3.36 0.97-5.37-5.13-2.8-3.15 4.1-7.55-6.19 2.8-3.62-2.95-2.88-3.3 3.98c7.41 8.46 22.72 20.81 42.7 20.57z" fill="#C65205"/>
  <path d="m47.06 121.4h8.19v-5.08l-5.13-0.52 1.19-7.51 5.55-0.62 1.44-5.36-3.78-2.01 3.19-7.51 5.66 1.98 2.65-5.33-3.89-4.11 6.62-9.03 4.88 2.67 2.04-2.23-5.72-5.13c-12.61 11.11-22.14 29.7-22.89 49.79z" fill="#EAB619"/>
</svg>