<svg xmlns="http://www.w3.org/2000/svg" width="201" height="201" fill="none" viewBox="0 0 201 201">
<!-- SVG created with Arrow, by QuiverAI (https://quiver.ai) -->
  <path d="m45.86 143.1-7.83 48.66 19.78 4.97 28.23 1.29 30.72-2.09 9.63-4.49-10.14-79.1-4.8-10.83-7.67-6.02-13.72-1.1-1.24 1.27-3.64-2.46-15.1 1.89-16.66 2.64-5.01 1.99-2.12-6.93-8.97-4.81-4.32 1.72-0.19 3 3.58-0.17 7.21 28.23 2.26 0.29v22.05z" fill="#000" stroke="#000" stroke-miterlimit="10" stroke-width=".7"/>
  <path d="m47.01 146.4-7.53 44.5 17.74 4.24 28.55 1.85 30.75-2.02 8.52-3.86-10.62-77.07-10.22-17.86-12.47-1.23-3.94 0.35-18.65 1.1-14.68 2.53-3 10.83-5.94 8.33 1.25 23.9 0.24 4.41z" fill="#C05D2F" stroke="#000" stroke-miterlimit="10" stroke-width=".7"/>
  <path d="m61.61 163.6 24.96 0.93-0.28-41.39-21.91 22.89-2.77 17.57z" fill="#E49723" stroke="#000" stroke-miterlimit="10" stroke-width=".7"/>
  <path d="m43.61 161.6 14.18 34.05 0.5 0.09 3.61-32.03 2.12-17.76-5.9 4.02-5.38 7.41-9.13 4.22z" fill="#B13A25" stroke="#000" stroke-miterlimit="10" stroke-width=".7"/>
  <path d="m109 137.2 2.7 24.9 9.27 4.97-4.46 0.25 4.66 23.28-4.08 3.99-4.21 0.34-4.57-29.94 0.69-27.79z" fill="#B13A25" stroke="#000" stroke-miterlimit="10" stroke-width=".7"/>
  <path d="m87.18 157.3 10.48 11.8 1.63 27.2-13.07 0.91 0.96-39.91z" fill="#E59723" stroke="#000" stroke-miterlimit="10" stroke-width=".7"/>
  <path d="m106 168.8-8.38 0.35 1.69 27.2 10.26-1.25-3.57-26.3z" fill="#B14825" stroke="#000" stroke-miterlimit="10" stroke-width=".7"/>
  <path d="m58.47 195.3 27.95-29.54-0.13 31.49-3.11-0.07-10.77-15.59-13.94 13.71z" fill="#EFE5BB" stroke="#000" stroke-miterlimit="10" stroke-width=".7"/>
  <path d="m109 135.4 10.21 29.06-3.21-37.12-9.82-19.33 1.02 7.66 1.8 19.73z" fill="#DB9528" stroke="#000" stroke-miterlimit="10" stroke-width=".7"/>
  <path d="m86.29 123.1 0.42 34.35 21.3-22.97-2.54-38.35-3.46-0.98-9.93-0.25-4.39 0.18-1.4 28.02z" fill="#EFE5BB" stroke="#000" stroke-miterlimit="10" stroke-width=".7"/>
  <path d="m95.46 120.2 11.42 0.87 0.87 14.27-10.5 12.22-1.79-27.36z" fill="#C19133" stroke="#000" stroke-miterlimit="10" stroke-width=".7"/>
  <path d="m107.9 157.4-1.76 9.62 9.33 27.79 1.47-0.22-5.82-33-3.22-4.19z" fill="#EFE5BB" stroke="#000" stroke-miterlimit="10" stroke-width=".7"/>
  <path d="m87.83 95 5.94-34.99 13.14 11.93 10.97 22.8-4.66 3.99-9.63-3.39-13.47-0.56-2.29 0.22z" fill="#000" stroke="#000" stroke-miterlimit="10" stroke-width=".7"/>
  <path d="m93.68 61.48 11.67 10.73 2.23 3.84 6.34 12.02-0.86 2.03-8.53-1.94-11.27-0.97-4.15-13.13 4.57-12.58z" fill="#D6822B" stroke="#000" stroke-miterlimit="10" stroke-width=".7"/>
  <path d="m48.53 90.71 19.53-21.5 7.92-1.93 4.03 3.14 9.51-7.34 2.7 2.12-8.21 22.03-2.23-1.04-13.68 6.63-19.57-2.11z" fill="#000" stroke="#000" stroke-miterlimit="10" stroke-width=".7"/>
  <path d="m50.62 89.68 18.19-19.63 7.5-1.41-5.47 9.12-7.12 11.4 0.42 2.12-13.52-1.6z" fill="#B13A25" stroke="#000" stroke-miterlimit="10" stroke-width=".7"/>
  <path d="m63.94 88.88 6.51-11.58 18.52-3.07-3.86 12.57-3.04-0.35-8 4.67-10.13-1.18v-1.06z" fill="#C19133" stroke="#000" stroke-miterlimit="10" stroke-width=".7"/>
  <path d="m89.04 67.07-17.93 9.65 16.87-2.49 1.06-7.16z" fill="#EFE5BB" stroke="#000" stroke-miterlimit="10" stroke-width=".7"/>
  <path d="m106.2 52.9 37.72-39.56 17.31 23.07-34.76 37.82-18.43-19.62-1.84-1.71z" fill="#000" stroke="#000" stroke-miterlimit="10" stroke-width=".7"/>
  <path d="m108.5 53.14 35.46-38.78 15.55 21.8-33 36.61-18.01-19.63z" fill="#314A66" stroke="#000" stroke-miterlimit="10" stroke-width=".4"/>
  <path d="m111.8 55.83 12.18-14.54 4.42 4.82 1.58-4.69-6.47-4.31" stroke="#B14825" stroke-miterlimit="10" stroke-width=".5"/>
  <path d="m114.5 57.32c0.47 0 0.85-0.44 0.85-1s-0.38-1.01-0.85-1.01-0.85 0.45-0.85 1.01 0.38 1 0.85 1z" fill="#C29A5A" stroke="#000" stroke-miterlimit="10" stroke-width=".4"/>
  <path d="m122.1 39.22 4.13 4.07 2.22-0.64 1.4-1.23 1.12-4.71 2.45-1.97 1.79 0.87 1.21-1.11 2.19 1.86-1.43 2.53-2.33-0.67-1.83 1.54-1.33 4.14-4.9 2.17-4.69-6.85z" fill="#000" stroke="#000" stroke-miterlimit="10" stroke-width=".4"/>
  <path d="m127.3 57.16 7.89-10.14 9.63 10.14 0.38-4.68-7.06-9.97 6.47 5.29 8.05-11.39" stroke="#B14825" stroke-miterlimit="10" stroke-width=".5"/>
  <path d="m129.3 47.02 1.81-9.73 2.59-2.48 2.64 0.96 1.51-1.62 7.23 2.86 7.88-9.5 5.75 8.45-12.31 13.66-8.18-10.01-8.92 7.41z" stroke="#C29A5A" stroke-miterlimit="10" stroke-width=".5"/>
  <path d="m126.7 37.83 18.59-20.22 3.29 3.99-10.42 11.58" stroke="#637991" stroke-miterlimit="10" stroke-width=".5"/>
  <path d="m140 27.08 2.13 2.13 5.5-6.5" stroke="#637991" stroke-miterlimit="10" stroke-width=".5"/>
  <path d="m122.6 47.9c0.47 0 0.85-0.45 0.85-1.01s-0.38-1.01-0.85-1.01-0.85 0.45-0.85 1.01 0.38 1.01 0.85 1.01z" fill="#C29A5A" stroke="#000" stroke-miterlimit="10" stroke-width=".4"/>
  <path d="m120.8 63.08 9.44-10.67 5.94 5.23-9.44 10.03-5.94-4.59z" stroke="#637991" stroke-miterlimit="10" stroke-width=".5"/>
  <path d="m132.9 52.55 1.91-4.49 3.65 1.7 0.25 2.45-1.71 2.67-2.54 0.43-1.56-2.76z" stroke="#B14825" stroke-miterlimit="10" stroke-width=".5"/>
  <path d="m134.1 51.32 2.89-0.42 0.62 2.03" stroke="#B14825" stroke-miterlimit="10" stroke-width=".5"/>
  <path d="m135.1 53.43 1.94 0.07" stroke="#B14825" stroke-miterlimit="10" stroke-width=".5"/>
  <path d="m107.1 105.1 20.01-20.47 42.33 47.37-19.04 20.46-43.3-47.36z" fill="#000" stroke="#000" stroke-miterlimit="10" stroke-width=".7"/>
  <path d="m109 105.2 18.4-19.13 40.24 46.26-17.44 18.22-41.2-45.35z" fill="#314A66" stroke="#000" stroke-miterlimit="10" stroke-width=".4"/>
  <path d="m113.5 105.2 7.38-8.1 10.87 11.8 7.97-6.6 20.19 23.79-6.55 5.72-11.97-14.51-6.33 2.8-10.33-11.06-3.75-2.8" stroke="#637991" stroke-miterlimit="10" stroke-width=".5"/>
  <path d="m124.3 89.09 14.55 14.51" stroke="#637991" stroke-miterlimit="10" stroke-width=".5"/>
  <path d="m121.8 92.09 10.42 10.13" stroke="#C29A5A" stroke-miterlimit="10" stroke-width=".5"/>
  <path d="m134.6 102.8c0.47 0 0.85-0.45 0.85-1.01s-0.38-1-0.85-1-0.85 0.44-0.85 1 0.38 1.01 0.85 1.01z" fill="#B14825" stroke="#000" stroke-miterlimit="10" stroke-width=".4"/>
  <path d="m140.4 104.2c0.47 0 0.85-0.45 0.85-1.01s-0.38-1.01-0.85-1.01-0.85 0.45-0.85 1.01 0.38 1.01 0.85 1.01z" fill="#B14825" stroke="#000" stroke-miterlimit="10" stroke-width=".4"/>
  <path d="m126.6 114.4 2.2-1.1 2.09 0.97 0.93-0.18 0.28 1.96 1.48 0.95-0.9 1.68 1.31 1.3-3 1.38-2.4 0.57-1.44-0.9-1.22-2.23-0.34-2.12 1.01-2.28z" stroke="#B14825" stroke-miterlimit="10" stroke-width=".5"/>
  <path d="m128.3 114 0.82 4.57 0.75-1.07 0.5 2.6" stroke="#B14825" stroke-miterlimit="10" stroke-width=".5"/>
  <path d="m133.1 130.6 9.51-10.62 10.8 11.25 4-3.83 7.06 7.66" stroke="#C29A5A" stroke-miterlimit="10" stroke-width=".5"/>
  <path d="m136.1 133.1 7.83-8.77 11.84 12.61-1.69 5.09-4.42 1.89" stroke="#637991" stroke-miterlimit="10" stroke-width=".5"/>
  <path d="m135.6 133.8c0.47 0 0.86-0.44 0.86-1s-0.39-1.01-0.86-1.01c-0.46 0-0.85 0.45-0.85 1.01s0.39 1 0.85 1z" fill="#C29A5A" stroke="#000" stroke-miterlimit="10" stroke-width=".4"/>
  <path d="m147.8 143.9c0.47 0 0.85-0.45 0.85-1.01s-0.38-1-0.85-1-0.85 0.44-0.85 1 0.38 1.01 0.85 1.01z" fill="#B14825" stroke="#000" stroke-miterlimit="10" stroke-width=".4"/>
  <path d="m140.9 114 1.77-0.8 2.61 1.62 1.48 1.88-0.41 1.54 0.93 1.37-1 1.37-2.2-1.65-1.47-1.88-2.05-1.31 0.34-2.14z" stroke="#C29A5A" stroke-miterlimit="10" stroke-width=".5"/>
  <path d="m155.6 128.3c0.47 0 0.85-0.45 0.85-1.01s-0.38-1.01-0.85-1.01-0.85 0.45-0.85 1.01 0.38 1.01 0.85 1.01z" fill="#C29A5A" stroke="#000" stroke-miterlimit="10" stroke-width=".4"/>
  <path d="m165.7 133c0.47 0 0.85-0.45 0.85-1.01s-0.38-1-0.85-1-0.85 0.44-0.85 1 0.38 1.01 0.85 1.01z" fill="#B14825" stroke="#000" stroke-miterlimit="10" stroke-width=".4"/>
  <path d="m132.4 128.7 10.63-10.47" stroke="#DB9528" stroke-miterlimit="10" stroke-width=".5"/>
  <path d="m34.11 22.71 22.05-20.71 43.95 50.08-20.4 19.99-45.6-49.36z" fill="#000" stroke="#000" stroke-miterlimit="10" stroke-width=".7"/>
  <path d="m35.11 22.71 21.11-19.29 42.41 48.11-19.31 18.59-44.21-47.41z" fill="#314A66" stroke="#000" stroke-miterlimit="10" stroke-width=".4"/>
  <path d="m39.28 19.71 7.13 6.02 4.42-0.63 7.88 7.73-5.7 2.12-13.73-13.66" stroke="#637991" stroke-miterlimit="10" stroke-width=".5"/>
  <path d="m41.41 19.64c0.47 0 0.85-0.45 0.85-1.01 0-0.55-0.38-1-0.85-1s-0.85 0.45-0.85 1c0 0.56 0.38 1.01 0.85 1.01z" fill="#C29A5A" stroke="#000" stroke-miterlimit="10" stroke-width=".4"/>
  <path d="m48.79 27.94c0.47 0 0.85-0.44 0.85-1s-0.38-1.01-0.85-1.01-0.85 0.45-0.85 1.01 0.38 1 0.85 1z" fill="#637991" stroke="#000" stroke-miterlimit="10" stroke-width=".4"/>
  <path d="m49.41 12.14 7.06-7.12 16.41 20.22-10.73 10.89-12.74-14.67-4.13-8.34" stroke="#C29A5A" stroke-miterlimit="10" stroke-width=".5"/>
  <path d="m50.18 12.01 7.22-7.4 12.53 16.86-7.3 7.72-12.45-17.18z" stroke="#637991" stroke-miterlimit="10" stroke-width=".5"/>
  <path d="m58.92 12.79 10.76 9.13" stroke="#B14825" stroke-miterlimit="10" stroke-width=".5"/>
  <path d="m58.92 13.31c0.47 0 0.85-0.45 0.85-1.01s-0.38-1-0.85-1-0.85 0.44-0.85 1 0.38 1.01 0.85 1.01z" fill="#B14825" stroke="#000" stroke-miterlimit="10" stroke-width=".4"/>
  <path d="m70.06 21.92c0.47 0 0.85-0.44 0.85-1s-0.38-1.01-0.85-1.01-0.85 0.45-0.85 1.01 0.38 1 0.85 1z" fill="#637991" stroke="#000" stroke-miterlimit="10" stroke-width=".4"/>
  <path d="m58 34.32 1.29-1.11 2.44 0.7 2.38 2.12 0.55 2.3-0.76 1.51-1.98 1.02-2.76-1.73-1.22-2.41 0.06-2.4z" fill="#C29A5A" stroke="#000" stroke-miterlimit="10" stroke-width=".4"/>
  <path d="m60.12 33.89 0.94 3.47 1.06-0.35 0.1 1.9" stroke="#000" stroke-miterlimit="10" stroke-width=".4"/>
  <path d="m64.09 41.51 4.63 2.03 1.34-2.89 9-11.74" stroke="#637991" stroke-miterlimit="10" stroke-width=".5"/>
  <path d="m63.56 52.01 5.57-5.89-0.82-1.72 8.18-7.79 3.69-6.6 13.73 20.68-6.8 4.7" stroke="#637991" stroke-miterlimit="10" stroke-width=".5"/>
  <path d="m69.93 48.47 11.49-9.26 9.8 11.51-5.48 4.59" stroke="#C29A5A" stroke-miterlimit="10" stroke-width=".5"/>
  <path d="m72.47 35.02 2.6-2.3 1.26 0.59 0.92 0.21 1.66 0.39 1.15 3.17-0.65 2.63-2.23 1.5-3.17-1.3-1.54-2.83v-2.06z" stroke="#B14825" stroke-miterlimit="10" stroke-width=".5"/>
  <path d="m75.91 33.64 0.82 3.58 1.02-1.51 0.07 3.65" stroke="#B14825" stroke-miterlimit="10" stroke-width=".5"/>
  <path d="m72.54 54.45 10.27 11.05" stroke="#B14825" stroke-miterlimit="10" stroke-width=".5"/>
  <path d="m73.62 55.14c0.47 0 0.85-0.45 0.85-1.01s-0.38-1.01-0.85-1.01-0.85 0.45-0.85 1.01 0.38 1.01 0.85 1.01z" fill="#C29A5A" stroke="#000" stroke-miterlimit="10" stroke-width=".4"/>
  <path d="m83.73 65.93c0.47 0 0.85-0.45 0.85-1.01s-0.38-1.01-0.85-1.01-0.85 0.45-0.85 1.01 0.38 1.01 0.85 1.01z" fill="#C29A5A" stroke="#000" stroke-miterlimit="10" stroke-width=".4"/>
  <path d="m80.39 45.41 3.75-1.19 1.6 5.54-1.95-2.06-1.19 2.48-2.21-4.77z" fill="#C29A5A" stroke="#000" stroke-miterlimit="10" stroke-width=".2"/>
  <path d="m103.7 86.08c4.6 0 7.89-3.78 6.34-9.76l-3.4-4.34c-1.44-0.93-3.15-1.43-4.89-1.43-5 0-8.1 4.06-8.1 8.27 0 3.57 3.05 7.15 6.85 7.26h3.2z" fill="#000" stroke="#000" stroke-miterlimit="10" stroke-width=".7"/>
  <path d="m104.8 82.08c2.62 0 4.02-2.07 3.4-4.61-0.55-2.3-1.95-2.69-3.6-2.69-2.4 0-3.56 1.79-3.56 3.73s1.26 3.57 3.76 3.57z" fill="#B28E51" stroke="#000" stroke-miterlimit="10" stroke-width=".7"/>
  <path d="m33.42 130.2 45.73-46.78 19.69 21.57-42.08 47.8-23.34-22.59z" fill="#000" stroke="#000" stroke-miterlimit="10" stroke-width=".7"/>
  <path d="m34.72 130.1 44.21-44.85 17.65 19.48-39.88 45.13-21.98-19.76z" fill="#314A66" stroke="#000" stroke-miterlimit="10" stroke-width=".4"/>
  <path d="m38.54 129.1 16.29-15.13 10.63 10.32 4.47-3.47-1.31-3.74-11.83-9.57 9.37-7.5" stroke="#B14825" stroke-miterlimit="10" stroke-width=".5"/>
  <path d="m44.18 134.1 12.04-11.84 10.09 11.39-13.61 11.9" stroke="#C29A5A" stroke-miterlimit="10" stroke-width=".5"/>
  <path d="m52.33 115.2c0.47 0 0.85-0.45 0.85-1.01s-0.38-1-0.85-1-0.85 0.44-0.85 1 0.38 1.01 0.85 1.01z" fill="#C29A5A" stroke="#000" stroke-miterlimit="10" stroke-width=".4"/>
  <path d="m52.71 146.7c0.47 0 0.85-0.45 0.85-1.01s-0.38-1-0.85-1-0.85 0.44-0.85 1 0.38 1.01 0.85 1.01z" fill="#C29A5A" stroke="#000" stroke-miterlimit="10" stroke-width=".4"/>
  <path d="m64.02 137.1c0.47 0 0.85-0.45 0.85-1.01s-0.38-1.01-0.85-1.01-0.85 0.45-0.85 1.01 0.38 1.01 0.85 1.01z" fill="#637991" stroke="#000" stroke-miterlimit="10" stroke-width=".4"/>
  <path d="m60.61 139.2c0.47 0 0.85-0.45 0.85-1.01 0-0.55-0.38-1-0.85-1s-0.85 0.45-0.85 1c0 0.56 0.38 1.01 0.85 1.01z" fill="#637991" stroke="#000" stroke-miterlimit="10" stroke-width=".4"/>
  <path d="m64.92 104.7 1.19-1.58 1.81-0.34 2.09 0.51 1.7 1.72 0.48 2.13-1.37 2.26-2.76 0.73-2.3-1.54-1.48-1.81 0.64-2.08z" stroke="#B14825" stroke-miterlimit="10" stroke-width=".5"/>
  <path d="m66.58 104.9 2.13 1.73 0.35-1.35 0.68 2.7" stroke="#B14825" stroke-miterlimit="10" stroke-width=".5"/>
  <path d="m66.11 108.6 5.94-1.29-0.34 4.37-2.37 3.4-3.64-0.78-0.79-3.03" stroke="#B14825" stroke-miterlimit="10" stroke-width=".5"/>
  <path d="m67.5 120.8 1.01-0.69 1.8-0.13 1.26 0.41 1.16 1.31 0.03 1.34-0.54 2.05-2.2 1.78-2.3-0.14-1.34-1.65" stroke="#C29A5A" stroke-miterlimit="10" stroke-width=".5"/>
  <path d="m69.2 120.4 0.34 3.03 0.9-0.73-0.41 2.31" stroke="#C29A5A" stroke-miterlimit="10" stroke-width=".5"/>
  <path d="m82.94 93.93-4.13-4.71-7.63 9.27 5.94 2.22 1.16-1.93 5.23 5.39" stroke="#637991" stroke-miterlimit="10" stroke-width=".5"/>
  <path d="m74.92 98.43 1.55-2.06 0.54 2.76-2.09-0.7z" fill="#637991" stroke="#000" stroke-miterlimit="10" stroke-width=".2"/>
  <path d="m85.48 110.9 7.95-10.14-1.12-1.72-15.86 18.08 0.67 2.13 5.94 0.07 9.86-12.34" stroke="#C29A5A" stroke-miterlimit="10" stroke-width=".5"/>
  <path d="m84.39 111.9c0.47 0 0.85-0.45 0.85-1.01s-0.38-1.01-0.85-1.01-0.85 0.45-0.85 1.01 0.38 1.01 0.85 1.01z" fill="#C29A5A" stroke="#000" stroke-miterlimit="10" stroke-width=".4"/>
  <path d="m79.91 123.9c0.47 0 0.85-0.45 0.85-1.01s-0.38-1.01-0.85-1.01-0.85 0.45-0.85 1.01 0.38 1.01 0.85 1.01z" fill="#637991" stroke="#000" stroke-miterlimit="10" stroke-width=".4"/>
  <path d="m118.9 107.1 1.77 0.42 1.8 3.22-2.19-1.03-0.55 2.12-0.83-4.73z" fill="#C29A5A" stroke="#000" stroke-miterlimit="10" stroke-width=".2"/>
</svg>