<svg xmlns="http://www.w3.org/2000/svg" width="250" height="250" viewBox="0 0 250 250">
<!-- SVG created with Arrow, by QuiverAI (https://quiver.ai) -->
  <path d="m247.2 88.29-22.97 1.6-0.8 0.95-34.62 0.18-0.88 1.7-18.17-2.36-2.47 3-3.22-1.97c-5.08-2.5-9.89-2.6-18.53-2.58l-0.76-3.33-18.99-0.23-4.8 5.71-11.6-0.54-1.56-1.5-7.75 1.5-1.88-1.81-25.26 5.3-5.24-5.76-18.05 1.82-0.64-6.31-18.33 1.79-0.84-0.68-26.82 1.75 4.33 19.16 2.51 57.25 24.87-4.4 17.56-0.72 0.3-2.65 3.57 0.2 5.49 4.27 1.76-3.44 2.3 0.42 27.2-3.76 0.77 3.09 18.83-3.52 14.63 14.63 10.9-13.17 19.9-1.86 1.76 2.7 21.01 1.29 0.38-1.29 15.01 2.4 30.26-0.96 1.97 1.24 17.61 0.81 1.55-40.44-0.29-29.48z" fill="#000"/>
  <path d="m245.3 89.56-20.15 1.68-0.92 1.72-34.47-0.27-0.84 2.09-17.7-2.09-3.29 3.14-3.29-2.17c-4.82-2.57-9.41-3.24-18.84-2.87l-1.31-4.02-17.44-0.11-5.69 6.17-11.6-0.53-1.38-1.42-8.33 1.53-1.59-1.62-23.49 4.63-6.28-6.14-19.61 1.85-0.58-5.82-17.95 1.92-1.16-0.91-23.93 1.29 3.9 16.32 2.16 56.28 22.94-3.79 16.57-0.34-0.08-2.73 6 0.11 4.41 3.86 1.12-5.21 2.34 2.65 28.07-4.45 1.3 3.6 18.17-3.83 15.01 14.33 12.48-14.29 18-1.21 2.2 3.52 19.61 0.7 0.39-4.04 3.93 4.22 12.07 1.59 29.71-0.64 2.51-3.04 1.15 4.37 14.78 0.6 1.95-39.13-0.85-27.5z" fill="#EBE3BF"/>
  <path d="m140 92.61-11.14-0.1-12.03 22.17 18 15.54-17.1 17.69 9.69 7.04 14.7-16.32-1.23-16.22-9.35-9.89c-3.34-4.49-2.15-10.31 4.69-9.71l4.49 1.12-0.72-11.32z" fill="#E38616" stroke="#000" stroke-miterlimit="10" stroke-width=".75"/>
  <path d="m143.9 97.61 0.91 47.99 7.45-1.39 0.43-15.13c8.04-0.9 15.18-4.95 15.6-16.88 0.62-17.93-9.86-15.82-24.39-14.59zm7.8 24.57-0.75-14.99c0.12-1.42 0.44-1.13 1.16-1.28 4.59-0.32 7.83 1.85 7.46 8.33-0.42 4.83-3.47 7.77-7.87 7.94z" fill="#E38616" stroke="#000" stroke-miterlimit="10" stroke-width=".75"/>
  <path d="m174.1 100.2-8.8 45.43 7.3 0.77 1.81-10.13 8.39-0.36 1.86 10.29 6.57 1.08-7.33-46.72-9.8-0.36zm1.18 28.61 3.41-19.81 3.94 18.9-7.35 0.91z" fill="#E38616" stroke="#000" stroke-miterlimit="10" stroke-width=".75"/>
  <path d="m194.7 98.91 2.94 48.1 6.11 0.21 0.17-48.82-9.22 0.51z" fill="#E38616" stroke="#000" stroke-miterlimit="10" stroke-width=".75"/>
  <path d="m208.7 98.52 9 0.67 12.7 23.72 0.49-25.3 9.35-0.9-0.94 52.2-4.21-0.54-18.49-29.62-1.44 26.97-6.46 0.27v-47.47z" fill="#E38616" stroke="#000" stroke-miterlimit="10" stroke-width=".75"/>
  <path d="m10.01 93.31 14.28-0.6-0.98 26.13 8.5-0.94-0.07-16.67-1.01-7.51 13.12-2.51 0.76 59.01-10.7-0.82-0.97-20.31-7.93 0.27 0.27 22.83-9.87 1.62-1.95-50.2-3.45-10.3z" fill="#CC291F" stroke="#000" stroke-miterlimit="10" stroke-width=".75"/>
  <path d="m52.81 97.46-6.34 50.05 8.5-0.6 1.65-13.11 7.27-0.06 1.83 13.39 8.57-0.82-10.08-49.67-11.4 0.82zm1.95 26.96 3.29-18.26 3.44 18.75-6.73-0.49z" fill="#CC291F" stroke="#000" stroke-miterlimit="10" stroke-width=".75"/>
  <path d="m78.66 100.2 14.95-2.17-0.2 9.66-8.66 0.57-2.68 17.45 4.14 8.8 8.57-0.21 0.53 8.73-12.42 2.79-10.18-21.86 5.95-23.76z" fill="#CC291F" stroke="#000" stroke-miterlimit="10" stroke-width=".75"/>
  <path d="m95.06 100.1 8.11-0.99 1.31 18.99 7.53-19.19 7.45-1-9.25 22.2 15.46 14.09-8.5 10.71-11.42-17.45 0.76 17.15-8.5 1.42-2.95-45.93z" fill="#CC291F" stroke="#000" stroke-miterlimit="10" stroke-width=".75"/>
  <path d="m14.62 108.3 8.34-3.13-0.35 13.25 0.48 0.45 3.49-0.19 7.27 1.31 9.27 6.1-0.16-34.27-11.67 2.1 0.94 7.2-0.32 16.93-8.6 0.88 0.63-26.31-13.52 0.3 4.2 12.17v3.21z" fill="#9E1919"/>
  <path d="m49.41 126.7 5.66 3.09 6.06 1.65 8.93-1.29 3.99 15.94-7.86 1-2.76-12.94-6.7-0.17-1.66 12.76-7.64 0.7 1.98-20.74z" fill="#9E1919"/>
  <path d="m78.21 125.2 4.07 0.91 3.85 8.53 8.72 0.07 0.36 8.23-11.82 2.9-6.22-13.5 0.42-6.19 0.62-0.95z" fill="#9E1919"/>
  <path d="m119.5 146.2 17.71-17.25 4.94 8.23-14.95 16.77-8.8-6.6 1.1-1.15z" fill="#BF4420"/>
  <path d="m197.7 123.9 2.68 12.91 2.3-4.74 0.08-31.98-7.53 0.27 2.47 23.54z" fill="#D6761D"/>
  <path d="m209.8 123.1 6.25-1.05 0.27 22.91-6.77 0.2 0.25-22.06z" fill="#BF6004"/>
  <path d="m224.4 125.7 15.38-0.99-0.35-27.22-7.8 0.77-0.62 24.64-1.76-0.67-4.85 3.47z" fill="#D6761D"/>
</svg>